G04 #@! TF.FileFunction,Paste,Top*
%FSLAX46Y46*%
G04 Gerber Fmt 4.6, Leading zero omitted, Abs format (unit mm)*
G04 Created by KiCad (PCBNEW 4.0.7) date 06/22/18 18:45:24*
%MOMM*%
%LPD*%
G01*
G04 APERTURE LIST*
%ADD10C,0.100000*%
%ADD11R,1.500000X1.250000*%
%ADD12R,1.500000X1.300000*%
%ADD13R,1.900000X0.800000*%
%ADD14R,2.500000X1.000000*%
%ADD15R,4.000000X2.000000*%
%ADD16R,0.600000X1.500000*%
G04 APERTURE END LIST*
D10*
D11*
X3750000Y40000000D03*
X6250000Y40000000D03*
X4250000Y15000000D03*
X6750000Y15000000D03*
X20250000Y16500000D03*
X22750000Y16500000D03*
X41750000Y20000000D03*
X44250000Y20000000D03*
X41750000Y18000000D03*
X44250000Y18000000D03*
X41750000Y16000000D03*
X44250000Y16000000D03*
D12*
X34650000Y13000000D03*
X37350000Y13000000D03*
X34650000Y11000000D03*
X37350000Y11000000D03*
D13*
X36500000Y46950000D03*
X36500000Y45050000D03*
X39500000Y46000000D03*
X51000000Y45050000D03*
X51000000Y46950000D03*
X48000000Y46000000D03*
X48000000Y42950000D03*
X48000000Y41050000D03*
X51000000Y42000000D03*
X36500000Y36950000D03*
X36500000Y35050000D03*
X39500000Y36000000D03*
X51000000Y35550000D03*
X51000000Y37450000D03*
X48000000Y36500000D03*
X48000000Y33450000D03*
X48000000Y31550000D03*
X51000000Y32500000D03*
X36500000Y28450000D03*
X36500000Y26550000D03*
X39500000Y27500000D03*
X51000000Y26550000D03*
X51000000Y28450000D03*
X48000000Y27500000D03*
X48000000Y24450000D03*
X48000000Y22550000D03*
X51000000Y23500000D03*
D12*
X33850000Y47000000D03*
X31150000Y47000000D03*
X33850000Y42500000D03*
X31150000Y42500000D03*
X44850000Y42500000D03*
X42150000Y42500000D03*
X44850000Y47000000D03*
X42150000Y47000000D03*
X29650000Y13000000D03*
X32350000Y13000000D03*
X29650000Y11000000D03*
X32350000Y11000000D03*
X33850000Y37000000D03*
X31150000Y37000000D03*
X33850000Y33000000D03*
X31150000Y33000000D03*
X16850000Y16500000D03*
X14150000Y16500000D03*
X44850000Y33000000D03*
X42150000Y33000000D03*
X44850000Y37000000D03*
X42150000Y37000000D03*
X33850000Y28500000D03*
X31150000Y28500000D03*
X33850000Y24000000D03*
X31150000Y24000000D03*
X44850000Y24000000D03*
X42150000Y24000000D03*
X42150000Y11000000D03*
X44850000Y11000000D03*
X44850000Y28500000D03*
X42150000Y28500000D03*
X28150000Y20000000D03*
X30850000Y20000000D03*
X28150000Y18000000D03*
X30850000Y18000000D03*
X28150000Y16000000D03*
X30850000Y16000000D03*
X34650000Y20000000D03*
X37350000Y20000000D03*
X34650000Y18000000D03*
X37350000Y18000000D03*
X34650000Y16000000D03*
X37350000Y16000000D03*
X51350000Y20000000D03*
X48650000Y20000000D03*
X51350000Y18000000D03*
X48650000Y18000000D03*
X51350000Y16000000D03*
X48650000Y16000000D03*
D14*
X7980000Y24500000D03*
X7980000Y26000000D03*
X7980000Y27500000D03*
D15*
X4020000Y26000000D03*
D10*
G36*
X5995000Y27000000D02*
X6745000Y26500000D01*
X6745000Y25500000D01*
X5995000Y25000000D01*
X5995000Y27000000D01*
X5995000Y27000000D01*
G37*
D16*
X12555000Y21300000D03*
X13825000Y21300000D03*
X15095000Y21300000D03*
X16365000Y21300000D03*
X17635000Y21300000D03*
X18905000Y21300000D03*
X20175000Y21300000D03*
X21445000Y21300000D03*
X21445000Y26700000D03*
X20175000Y26700000D03*
X18905000Y26700000D03*
X17635000Y26700000D03*
X16365000Y26700000D03*
X15095000Y26700000D03*
X13825000Y26700000D03*
X12555000Y26700000D03*
M02*
