%FSLAX45Y45*%
G04 Gerber Fmt 4.5, Leading zero omitted, Abs format (unit mm)*
G04 Created by KiCad (PCBNEW 4.0.7) date 06/22/18 18:43:54*
%MOMM*%
%LPD*%
G01*
G04 APERTURE LIST*
%ADD10C,0.127000*%
%ADD11C,0.150000*%
%ADD12C,0.200000*%
%ADD13C,0.300000*%
G04 APERTURE END LIST*
D10*
D11*
X6350000Y300000D02*
G75*
G03X6350000Y300000I-150000J0D01*
G01*
X450000Y4700000D02*
G75*
G03X450000Y4700000I-150000J0D01*
G01*
X450000Y300000D02*
G75*
G03X450000Y300000I-150000J0D01*
G01*
X6500000Y5000000D02*
X0Y5000000D01*
X6500000Y0D02*
X6500000Y5000000D01*
X0Y0D02*
X6500000Y0D01*
X0Y5000000D02*
X0Y0D01*
D12*
X1375000Y1955000D02*
X1405000Y1925000D01*
X1405000Y1955000D02*
X1375000Y1925000D01*
X1495000Y1875000D02*
X1525000Y1845000D01*
X1525000Y1875000D02*
X1495000Y1845000D01*
X1755000Y2335000D02*
X1785000Y2305000D01*
X1785000Y2335000D02*
X1755000Y2305000D01*
X1765000Y1805000D02*
X1795000Y1775000D01*
X1795000Y1805000D02*
X1765000Y1775000D01*
X2005000Y1975000D02*
X2035000Y1945000D01*
X2035000Y1975000D02*
X2005000Y1945000D01*
X2525000Y1995000D02*
X2555000Y1965000D01*
X2555000Y1995000D02*
X2525000Y1965000D01*
X2525000Y1825000D02*
X2555000Y1795000D01*
X2555000Y1825000D02*
X2525000Y1795000D01*
X2535000Y1585000D02*
X2565000Y1555000D01*
X2565000Y1585000D02*
X2535000Y1555000D01*
X2565000Y1275000D02*
X2595000Y1245000D01*
X2595000Y1275000D02*
X2565000Y1245000D01*
X2805000Y3095000D02*
X2835000Y3065000D01*
X2835000Y3095000D02*
X2805000Y3065000D01*
X2885000Y3965000D02*
X2915000Y3935000D01*
X2915000Y3965000D02*
X2885000Y3935000D01*
X2965000Y2155000D02*
X2995000Y2125000D01*
X2995000Y2155000D02*
X2965000Y2125000D01*
X3445000Y4435000D02*
X3475000Y4405000D01*
X3475000Y4435000D02*
X3445000Y4405000D01*
X3945000Y2015000D02*
X3975000Y1985000D01*
X3975000Y2015000D02*
X3945000Y1985000D01*
X3945000Y1815000D02*
X3975000Y1785000D01*
X3975000Y1815000D02*
X3945000Y1785000D01*
X3945000Y1615000D02*
X3975000Y1585000D01*
X3975000Y1615000D02*
X3945000Y1585000D01*
X4155000Y4045000D02*
X4185000Y4015000D01*
X4185000Y4045000D02*
X4155000Y4015000D01*
X4155000Y3485000D02*
X4185000Y3455000D01*
X4185000Y3485000D02*
X4155000Y3455000D01*
X4155000Y3105000D02*
X4185000Y3075000D01*
X4185000Y3105000D02*
X4155000Y3075000D01*
X4155000Y2625000D02*
X4185000Y2595000D01*
X4185000Y2625000D02*
X4155000Y2595000D01*
X4155000Y2225000D02*
X4185000Y2195000D01*
X4185000Y2225000D02*
X4155000Y2195000D01*
X4635000Y1615000D02*
X4665000Y1585000D01*
X4665000Y1615000D02*
X4635000Y1585000D01*
X4645000Y1815000D02*
X4675000Y1785000D01*
X4675000Y1815000D02*
X4645000Y1785000D01*
X4655000Y2015000D02*
X4685000Y1985000D01*
X4685000Y2015000D02*
X4655000Y1985000D01*
X5305000Y2855000D02*
X5335000Y2825000D01*
X5335000Y2855000D02*
X5305000Y2825000D01*
X5335000Y1645000D02*
X5365000Y1615000D01*
X5365000Y1645000D02*
X5335000Y1615000D01*
X5455000Y1475000D02*
X5485000Y1445000D01*
X5485000Y1475000D02*
X5455000Y1445000D01*
X1910000Y1520000D02*
G75*
G03X1910000Y1520000I-20000J0D01*
G01*
X4510000Y4850000D02*
G75*
G03X4510000Y4850000I-20000J0D01*
G01*
X4610000Y3920000D02*
G75*
G03X4610000Y3920000I-20000J0D01*
G01*
X4760000Y4850000D02*
G75*
G03X4760000Y4850000I-20000J0D01*
G01*
X4770000Y2930000D02*
G75*
G03X4770000Y2930000I-20000J0D01*
G01*
X4850000Y3920000D02*
G75*
G03X4850000Y3920000I-20000J0D01*
G01*
X4850000Y3010000D02*
G75*
G03X4850000Y3010000I-20000J0D01*
G01*
X2540000Y2410000D02*
X2540000Y2350000D01*
X2510000Y2380000D02*
X2570000Y2380000D01*
X2690000Y2410000D02*
X2690000Y2350000D01*
X2660000Y2380000D02*
X2720000Y2380000D01*
X428284Y3421715D02*
X428284Y3478284D01*
X371715Y3478284D01*
X371715Y3421715D01*
X428284Y3421715D01*
X478284Y1871715D02*
X478284Y1928284D01*
X421715Y1928284D01*
X421715Y1871715D01*
X478284Y1871715D01*
X678285Y3421715D02*
X678285Y3478284D01*
X621716Y3478284D01*
X621716Y3421715D01*
X678285Y3421715D01*
X678285Y1871715D02*
X678285Y1928284D01*
X621716Y1928284D01*
X621716Y1871715D01*
X678285Y1871715D01*
X1600000Y1250000D02*
X1650000Y1300000D01*
X1600000Y1350000D01*
X1550000Y1300000D01*
X1600000Y1250000D01*
X1850000Y1250000D02*
X1900000Y1300000D01*
X1850000Y1350000D01*
X1800000Y1300000D01*
X1850000Y1250000D01*
X2100000Y1250000D02*
X2150000Y1300000D01*
X2100000Y1350000D01*
X2050000Y1300000D01*
X2100000Y1250000D01*
X2400000Y4380000D02*
X2450000Y4430000D01*
X2400000Y4480000D01*
X2350000Y4430000D01*
X2400000Y4380000D01*
X2400000Y4130000D02*
X2450000Y4180000D01*
X2400000Y4230000D01*
X2350000Y4180000D01*
X2400000Y4130000D01*
X2400000Y3880000D02*
X2450000Y3930000D01*
X2400000Y3980000D01*
X2350000Y3930000D01*
X2400000Y3880000D01*
X2400000Y3630000D02*
X2450000Y3680000D01*
X2400000Y3730000D01*
X2350000Y3680000D01*
X2400000Y3630000D01*
X2400000Y3380000D02*
X2450000Y3430000D01*
X2400000Y3480000D01*
X2350000Y3430000D01*
X2400000Y3380000D01*
X2400000Y3130000D02*
X2450000Y3180000D01*
X2400000Y3230000D01*
X2350000Y3180000D01*
X2400000Y3130000D01*
X3150000Y550000D02*
X3200000Y600000D01*
X3150000Y650000D01*
X3100000Y600000D01*
X3150000Y550000D01*
X3400000Y550000D02*
X3450000Y600000D01*
X3400000Y650000D01*
X3350000Y600000D01*
X3400000Y550000D01*
X3650000Y550000D02*
X3700000Y600000D01*
X3650000Y650000D01*
X3600000Y600000D01*
X3650000Y550000D01*
X3900000Y550000D02*
X3950000Y600000D01*
X3900000Y650000D01*
X3850000Y600000D01*
X3900000Y550000D01*
X5900000Y4550000D02*
X5950000Y4600000D01*
X5900000Y4650000D01*
X5850000Y4600000D01*
X5900000Y4550000D01*
X5900000Y4300000D02*
X5950000Y4350000D01*
X5900000Y4400000D01*
X5850000Y4350000D01*
X5900000Y4300000D01*
X5900000Y4050000D02*
X5950000Y4100000D01*
X5900000Y4150000D01*
X5850000Y4100000D01*
X5900000Y4050000D01*
X347500Y1052500D02*
X452500Y947500D01*
X452500Y1052500D02*
X347500Y947500D01*
X452500Y1000000D02*
G75*
G03X452500Y1000000I-52500J0D01*
G01*
X597500Y1052500D02*
X702500Y947500D01*
X702500Y1052500D02*
X597500Y947500D01*
X702500Y1000000D02*
G75*
G03X702500Y1000000I-52500J0D01*
G01*
X897500Y4602500D02*
X1002500Y4497500D01*
X1002500Y4602500D02*
X897500Y4497500D01*
X1002500Y4550000D02*
G75*
G03X1002500Y4550000I-52500J0D01*
G01*
X1147500Y4602500D02*
X1252500Y4497500D01*
X1252500Y4602500D02*
X1147500Y4497500D01*
X1252500Y4550000D02*
G75*
G03X1252500Y4550000I-52500J0D01*
G01*
X4547500Y652500D02*
X4652500Y547500D01*
X4652500Y652500D02*
X4547500Y547500D01*
X4652500Y600000D02*
G75*
G03X4652500Y600000I-52500J0D01*
G01*
X4797500Y652500D02*
X4902500Y547500D01*
X4902500Y652500D02*
X4797500Y547500D01*
X4902500Y600000D02*
G75*
G03X4902500Y600000I-52500J0D01*
G01*
X5867500Y3432500D02*
X6032500Y3267500D01*
X6032500Y3432500D02*
X5867500Y3267500D01*
X5950000Y3432500D02*
X5950000Y3267500D01*
X5867500Y3350000D02*
X6032500Y3350000D01*
X5867500Y2640500D02*
X6032500Y2475500D01*
X6032500Y2640500D02*
X5867500Y2475500D01*
X5950000Y2640500D02*
X5950000Y2475500D01*
X5867500Y2558000D02*
X6032500Y2558000D01*
X5867500Y1848500D02*
X6032500Y1683500D01*
X6032500Y1848500D02*
X5867500Y1683500D01*
X5950000Y1848500D02*
X5950000Y1683500D01*
X5867500Y1766000D02*
X6032500Y1766000D01*
D13*
X263929Y-473214D02*
X263929Y-173214D01*
X335357Y-173214D01*
X378214Y-187500D01*
X406786Y-216071D01*
X421071Y-244643D01*
X435357Y-301786D01*
X435357Y-344643D01*
X421071Y-401786D01*
X406786Y-430357D01*
X378214Y-458929D01*
X335357Y-473214D01*
X263929Y-473214D01*
X563929Y-473214D02*
X563929Y-273214D01*
X563929Y-330357D02*
X578214Y-301786D01*
X592500Y-287500D01*
X621071Y-273214D01*
X649643Y-273214D01*
X749643Y-473214D02*
X749643Y-273214D01*
X749643Y-173214D02*
X735357Y-187500D01*
X749643Y-201786D01*
X763928Y-187500D01*
X749643Y-173214D01*
X749643Y-201786D01*
X935357Y-473214D02*
X906786Y-458929D01*
X892500Y-430357D01*
X892500Y-173214D01*
X1092500Y-473214D02*
X1063929Y-458929D01*
X1049643Y-430357D01*
X1049643Y-173214D01*
X1435357Y-473214D02*
X1435357Y-173214D01*
X1535357Y-387500D01*
X1635357Y-173214D01*
X1635357Y-473214D01*
X1906786Y-473214D02*
X1906786Y-316072D01*
X1892500Y-287500D01*
X1863928Y-273214D01*
X1806786Y-273214D01*
X1778214Y-287500D01*
X1906786Y-458929D02*
X1878214Y-473214D01*
X1806786Y-473214D01*
X1778214Y-458929D01*
X1763928Y-430357D01*
X1763928Y-401786D01*
X1778214Y-373214D01*
X1806786Y-358929D01*
X1878214Y-358929D01*
X1906786Y-344643D01*
X2049643Y-273214D02*
X2049643Y-573214D01*
X2049643Y-287500D02*
X2078214Y-273214D01*
X2135357Y-273214D01*
X2163929Y-287500D01*
X2178214Y-301786D01*
X2192500Y-330357D01*
X2192500Y-416071D01*
X2178214Y-444643D01*
X2163929Y-458929D01*
X2135357Y-473214D01*
X2078214Y-473214D01*
X2049643Y-458929D01*
X2321071Y-444643D02*
X2335357Y-458929D01*
X2321071Y-473214D01*
X2306786Y-458929D01*
X2321071Y-444643D01*
X2321071Y-473214D01*
X2321071Y-287500D02*
X2335357Y-301786D01*
X2321071Y-316072D01*
X2306786Y-301786D01*
X2321071Y-287500D01*
X2321071Y-316072D01*
X-37500Y-952500D02*
X-7500Y-982500D01*
X-7500Y-952500D02*
X-37500Y-982500D01*
X321071Y-803214D02*
X349643Y-803214D01*
X378214Y-817500D01*
X392500Y-831786D01*
X406786Y-860357D01*
X421071Y-917500D01*
X421071Y-988929D01*
X406786Y-1046071D01*
X392500Y-1074643D01*
X378214Y-1088929D01*
X349643Y-1103214D01*
X321071Y-1103214D01*
X292500Y-1088929D01*
X278214Y-1074643D01*
X263929Y-1046071D01*
X249643Y-988929D01*
X249643Y-917500D01*
X263929Y-860357D01*
X278214Y-831786D01*
X292500Y-817500D01*
X321071Y-803214D01*
X549643Y-1074643D02*
X563929Y-1088929D01*
X549643Y-1103214D01*
X535357Y-1088929D01*
X549643Y-1074643D01*
X549643Y-1103214D01*
X663928Y-803214D02*
X849643Y-803214D01*
X749643Y-917500D01*
X792500Y-917500D01*
X821071Y-931786D01*
X835357Y-946071D01*
X849643Y-974643D01*
X849643Y-1046071D01*
X835357Y-1074643D01*
X821071Y-1088929D01*
X792500Y-1103214D01*
X706786Y-1103214D01*
X678214Y-1088929D01*
X663928Y-1074643D01*
X1035357Y-803214D02*
X1063929Y-803214D01*
X1092500Y-817500D01*
X1106786Y-831786D01*
X1121071Y-860357D01*
X1135357Y-917500D01*
X1135357Y-988929D01*
X1121071Y-1046071D01*
X1106786Y-1074643D01*
X1092500Y-1088929D01*
X1063929Y-1103214D01*
X1035357Y-1103214D01*
X1006786Y-1088929D01*
X992500Y-1074643D01*
X978214Y-1046071D01*
X963928Y-988929D01*
X963928Y-917500D01*
X978214Y-860357D01*
X992500Y-831786D01*
X1006786Y-817500D01*
X1035357Y-803214D01*
X1263929Y-1103214D02*
X1263929Y-903214D01*
X1263929Y-931786D02*
X1278214Y-917500D01*
X1306786Y-903214D01*
X1349643Y-903214D01*
X1378214Y-917500D01*
X1392500Y-946071D01*
X1392500Y-1103214D01*
X1392500Y-946071D02*
X1406786Y-917500D01*
X1435357Y-903214D01*
X1478214Y-903214D01*
X1506786Y-917500D01*
X1521071Y-946071D01*
X1521071Y-1103214D01*
X1663928Y-1103214D02*
X1663928Y-903214D01*
X1663928Y-931786D02*
X1678214Y-917500D01*
X1706786Y-903214D01*
X1749643Y-903214D01*
X1778214Y-917500D01*
X1792500Y-946071D01*
X1792500Y-1103214D01*
X1792500Y-946071D02*
X1806786Y-917500D01*
X1835357Y-903214D01*
X1878214Y-903214D01*
X1906786Y-917500D01*
X1921071Y-946071D01*
X1921071Y-1103214D01*
X2506786Y-788929D02*
X2249643Y-1174643D01*
X2892500Y-803214D02*
X2921071Y-803214D01*
X2949643Y-817500D01*
X2963928Y-831786D01*
X2978214Y-860357D01*
X2992500Y-917500D01*
X2992500Y-988929D01*
X2978214Y-1046071D01*
X2963928Y-1074643D01*
X2949643Y-1088929D01*
X2921071Y-1103214D01*
X2892500Y-1103214D01*
X2863928Y-1088929D01*
X2849643Y-1074643D01*
X2835357Y-1046071D01*
X2821071Y-988929D01*
X2821071Y-917500D01*
X2835357Y-860357D01*
X2849643Y-831786D01*
X2863928Y-817500D01*
X2892500Y-803214D01*
X3121071Y-1074643D02*
X3135357Y-1088929D01*
X3121071Y-1103214D01*
X3106786Y-1088929D01*
X3121071Y-1074643D01*
X3121071Y-1103214D01*
X3321071Y-803214D02*
X3349643Y-803214D01*
X3378214Y-817500D01*
X3392500Y-831786D01*
X3406785Y-860357D01*
X3421071Y-917500D01*
X3421071Y-988929D01*
X3406785Y-1046071D01*
X3392500Y-1074643D01*
X3378214Y-1088929D01*
X3349643Y-1103214D01*
X3321071Y-1103214D01*
X3292500Y-1088929D01*
X3278214Y-1074643D01*
X3263928Y-1046071D01*
X3249643Y-988929D01*
X3249643Y-917500D01*
X3263928Y-860357D01*
X3278214Y-831786D01*
X3292500Y-817500D01*
X3321071Y-803214D01*
X3706785Y-1103214D02*
X3535357Y-1103214D01*
X3621071Y-1103214D02*
X3621071Y-803214D01*
X3592500Y-846071D01*
X3563928Y-874643D01*
X3535357Y-888929D01*
X3821071Y-831786D02*
X3835357Y-817500D01*
X3863928Y-803214D01*
X3935357Y-803214D01*
X3963928Y-817500D01*
X3978214Y-831786D01*
X3992500Y-860357D01*
X3992500Y-888929D01*
X3978214Y-931786D01*
X3806785Y-1103214D01*
X3992500Y-1103214D01*
X4106786Y-803214D02*
X4106786Y-860357D01*
X4221071Y-803214D02*
X4221071Y-860357D01*
X4663928Y-1217500D02*
X4649643Y-1203214D01*
X4621071Y-1160357D01*
X4606786Y-1131786D01*
X4592500Y-1088929D01*
X4578214Y-1017500D01*
X4578214Y-960357D01*
X4592500Y-888929D01*
X4606786Y-846071D01*
X4621071Y-817500D01*
X4649643Y-774643D01*
X4663928Y-760357D01*
X4763928Y-831786D02*
X4778214Y-817500D01*
X4806786Y-803214D01*
X4878214Y-803214D01*
X4906786Y-817500D01*
X4921071Y-831786D01*
X4935357Y-860357D01*
X4935357Y-888929D01*
X4921071Y-931786D01*
X4749643Y-1103214D01*
X4935357Y-1103214D01*
X5035357Y-803214D02*
X5235357Y-803214D01*
X5106786Y-1103214D01*
X5578214Y-1103214D02*
X5578214Y-803214D01*
X5706785Y-1103214D02*
X5706785Y-946071D01*
X5692500Y-917500D01*
X5663928Y-903214D01*
X5621071Y-903214D01*
X5592500Y-917500D01*
X5578214Y-931786D01*
X5892500Y-1103214D02*
X5863928Y-1088929D01*
X5849643Y-1074643D01*
X5835357Y-1046071D01*
X5835357Y-960357D01*
X5849643Y-931786D01*
X5863928Y-917500D01*
X5892500Y-903214D01*
X5935357Y-903214D01*
X5963928Y-917500D01*
X5978214Y-931786D01*
X5992500Y-960357D01*
X5992500Y-1046071D01*
X5978214Y-1074643D01*
X5963928Y-1088929D01*
X5935357Y-1103214D01*
X5892500Y-1103214D01*
X6163928Y-1103214D02*
X6135357Y-1088929D01*
X6121071Y-1060357D01*
X6121071Y-803214D01*
X6392500Y-1088929D02*
X6363928Y-1103214D01*
X6306786Y-1103214D01*
X6278214Y-1088929D01*
X6263928Y-1060357D01*
X6263928Y-946071D01*
X6278214Y-917500D01*
X6306786Y-903214D01*
X6363928Y-903214D01*
X6392500Y-917500D01*
X6406786Y-946071D01*
X6406786Y-974643D01*
X6263928Y-1003214D01*
X6521071Y-1088929D02*
X6549643Y-1103214D01*
X6606786Y-1103214D01*
X6635357Y-1088929D01*
X6649643Y-1060357D01*
X6649643Y-1046071D01*
X6635357Y-1017500D01*
X6606786Y-1003214D01*
X6563928Y-1003214D01*
X6535357Y-988929D01*
X6521071Y-960357D01*
X6521071Y-946071D01*
X6535357Y-917500D01*
X6563928Y-903214D01*
X6606786Y-903214D01*
X6635357Y-917500D01*
X6749643Y-1217500D02*
X6763928Y-1203214D01*
X6792500Y-1160357D01*
X6806786Y-1131786D01*
X6821071Y-1088929D01*
X6835357Y-1017500D01*
X6835357Y-960357D01*
X6821071Y-888929D01*
X6806786Y-846071D01*
X6792500Y-817500D01*
X6763928Y-774643D01*
X6749643Y-760357D01*
X-7500Y-1363500D02*
G75*
G03X-7500Y-1363500I-20000J0D01*
G01*
X321071Y-1199214D02*
X349643Y-1199214D01*
X378214Y-1213500D01*
X392500Y-1227786D01*
X406786Y-1256357D01*
X421071Y-1313500D01*
X421071Y-1384929D01*
X406786Y-1442071D01*
X392500Y-1470643D01*
X378214Y-1484929D01*
X349643Y-1499214D01*
X321071Y-1499214D01*
X292500Y-1484929D01*
X278214Y-1470643D01*
X263929Y-1442071D01*
X249643Y-1384929D01*
X249643Y-1313500D01*
X263929Y-1256357D01*
X278214Y-1227786D01*
X292500Y-1213500D01*
X321071Y-1199214D01*
X549643Y-1470643D02*
X563929Y-1484929D01*
X549643Y-1499214D01*
X535357Y-1484929D01*
X549643Y-1470643D01*
X549643Y-1499214D01*
X821071Y-1299214D02*
X821071Y-1499214D01*
X749643Y-1184929D02*
X678214Y-1399214D01*
X863928Y-1399214D01*
X1035357Y-1199214D02*
X1063929Y-1199214D01*
X1092500Y-1213500D01*
X1106786Y-1227786D01*
X1121071Y-1256357D01*
X1135357Y-1313500D01*
X1135357Y-1384929D01*
X1121071Y-1442071D01*
X1106786Y-1470643D01*
X1092500Y-1484929D01*
X1063929Y-1499214D01*
X1035357Y-1499214D01*
X1006786Y-1484929D01*
X992500Y-1470643D01*
X978214Y-1442071D01*
X963928Y-1384929D01*
X963928Y-1313500D01*
X978214Y-1256357D01*
X992500Y-1227786D01*
X1006786Y-1213500D01*
X1035357Y-1199214D01*
X1263929Y-1499214D02*
X1263929Y-1299214D01*
X1263929Y-1327786D02*
X1278214Y-1313500D01*
X1306786Y-1299214D01*
X1349643Y-1299214D01*
X1378214Y-1313500D01*
X1392500Y-1342072D01*
X1392500Y-1499214D01*
X1392500Y-1342072D02*
X1406786Y-1313500D01*
X1435357Y-1299214D01*
X1478214Y-1299214D01*
X1506786Y-1313500D01*
X1521071Y-1342072D01*
X1521071Y-1499214D01*
X1663928Y-1499214D02*
X1663928Y-1299214D01*
X1663928Y-1327786D02*
X1678214Y-1313500D01*
X1706786Y-1299214D01*
X1749643Y-1299214D01*
X1778214Y-1313500D01*
X1792500Y-1342072D01*
X1792500Y-1499214D01*
X1792500Y-1342072D02*
X1806786Y-1313500D01*
X1835357Y-1299214D01*
X1878214Y-1299214D01*
X1906786Y-1313500D01*
X1921071Y-1342072D01*
X1921071Y-1499214D01*
X2506786Y-1184929D02*
X2249643Y-1570643D01*
X2892500Y-1199214D02*
X2921071Y-1199214D01*
X2949643Y-1213500D01*
X2963928Y-1227786D01*
X2978214Y-1256357D01*
X2992500Y-1313500D01*
X2992500Y-1384929D01*
X2978214Y-1442071D01*
X2963928Y-1470643D01*
X2949643Y-1484929D01*
X2921071Y-1499214D01*
X2892500Y-1499214D01*
X2863928Y-1484929D01*
X2849643Y-1470643D01*
X2835357Y-1442071D01*
X2821071Y-1384929D01*
X2821071Y-1313500D01*
X2835357Y-1256357D01*
X2849643Y-1227786D01*
X2863928Y-1213500D01*
X2892500Y-1199214D01*
X3121071Y-1470643D02*
X3135357Y-1484929D01*
X3121071Y-1499214D01*
X3106786Y-1484929D01*
X3121071Y-1470643D01*
X3121071Y-1499214D01*
X3321071Y-1199214D02*
X3349643Y-1199214D01*
X3378214Y-1213500D01*
X3392500Y-1227786D01*
X3406785Y-1256357D01*
X3421071Y-1313500D01*
X3421071Y-1384929D01*
X3406785Y-1442071D01*
X3392500Y-1470643D01*
X3378214Y-1484929D01*
X3349643Y-1499214D01*
X3321071Y-1499214D01*
X3292500Y-1484929D01*
X3278214Y-1470643D01*
X3263928Y-1442071D01*
X3249643Y-1384929D01*
X3249643Y-1313500D01*
X3263928Y-1256357D01*
X3278214Y-1227786D01*
X3292500Y-1213500D01*
X3321071Y-1199214D01*
X3706785Y-1499214D02*
X3535357Y-1499214D01*
X3621071Y-1499214D02*
X3621071Y-1199214D01*
X3592500Y-1242072D01*
X3563928Y-1270643D01*
X3535357Y-1284929D01*
X3963928Y-1199214D02*
X3906785Y-1199214D01*
X3878214Y-1213500D01*
X3863928Y-1227786D01*
X3835357Y-1270643D01*
X3821071Y-1327786D01*
X3821071Y-1442071D01*
X3835357Y-1470643D01*
X3849643Y-1484929D01*
X3878214Y-1499214D01*
X3935357Y-1499214D01*
X3963928Y-1484929D01*
X3978214Y-1470643D01*
X3992500Y-1442071D01*
X3992500Y-1370643D01*
X3978214Y-1342072D01*
X3963928Y-1327786D01*
X3935357Y-1313500D01*
X3878214Y-1313500D01*
X3849643Y-1327786D01*
X3835357Y-1342072D01*
X3821071Y-1370643D01*
X4106786Y-1199214D02*
X4106786Y-1256357D01*
X4221071Y-1199214D02*
X4221071Y-1256357D01*
X4663928Y-1613500D02*
X4649643Y-1599214D01*
X4621071Y-1556357D01*
X4606786Y-1527786D01*
X4592500Y-1484929D01*
X4578214Y-1413500D01*
X4578214Y-1356357D01*
X4592500Y-1284929D01*
X4606786Y-1242072D01*
X4621071Y-1213500D01*
X4649643Y-1170643D01*
X4663928Y-1156357D01*
X4749643Y-1199214D02*
X4949643Y-1199214D01*
X4821071Y-1499214D01*
X5292500Y-1499214D02*
X5292500Y-1199214D01*
X5421071Y-1499214D02*
X5421071Y-1342072D01*
X5406786Y-1313500D01*
X5378214Y-1299214D01*
X5335357Y-1299214D01*
X5306786Y-1313500D01*
X5292500Y-1327786D01*
X5606785Y-1499214D02*
X5578214Y-1484929D01*
X5563928Y-1470643D01*
X5549643Y-1442071D01*
X5549643Y-1356357D01*
X5563928Y-1327786D01*
X5578214Y-1313500D01*
X5606785Y-1299214D01*
X5649643Y-1299214D01*
X5678214Y-1313500D01*
X5692500Y-1327786D01*
X5706785Y-1356357D01*
X5706785Y-1442071D01*
X5692500Y-1470643D01*
X5678214Y-1484929D01*
X5649643Y-1499214D01*
X5606785Y-1499214D01*
X5878214Y-1499214D02*
X5849643Y-1484929D01*
X5835357Y-1456357D01*
X5835357Y-1199214D01*
X6106786Y-1484929D02*
X6078214Y-1499214D01*
X6021071Y-1499214D01*
X5992500Y-1484929D01*
X5978214Y-1456357D01*
X5978214Y-1342072D01*
X5992500Y-1313500D01*
X6021071Y-1299214D01*
X6078214Y-1299214D01*
X6106786Y-1313500D01*
X6121071Y-1342072D01*
X6121071Y-1370643D01*
X5978214Y-1399214D01*
X6235357Y-1484929D02*
X6263928Y-1499214D01*
X6321071Y-1499214D01*
X6349643Y-1484929D01*
X6363928Y-1456357D01*
X6363928Y-1442071D01*
X6349643Y-1413500D01*
X6321071Y-1399214D01*
X6278214Y-1399214D01*
X6249643Y-1384929D01*
X6235357Y-1356357D01*
X6235357Y-1342072D01*
X6249643Y-1313500D01*
X6278214Y-1299214D01*
X6321071Y-1299214D01*
X6349643Y-1313500D01*
X6463928Y-1613500D02*
X6478214Y-1599214D01*
X6506786Y-1556357D01*
X6521071Y-1527786D01*
X6535357Y-1484929D01*
X6549643Y-1413500D01*
X6549643Y-1356357D01*
X6535357Y-1284929D01*
X6521071Y-1242072D01*
X6506786Y-1213500D01*
X6478214Y-1170643D01*
X6463928Y-1156357D01*
X-37500Y-1729500D02*
X-37500Y-1789500D01*
X-67500Y-1759500D02*
X-7500Y-1759500D01*
X321071Y-1595214D02*
X349643Y-1595214D01*
X378214Y-1609500D01*
X392500Y-1623786D01*
X406786Y-1652357D01*
X421071Y-1709500D01*
X421071Y-1780929D01*
X406786Y-1838071D01*
X392500Y-1866643D01*
X378214Y-1880929D01*
X349643Y-1895214D01*
X321071Y-1895214D01*
X292500Y-1880929D01*
X278214Y-1866643D01*
X263929Y-1838071D01*
X249643Y-1780929D01*
X249643Y-1709500D01*
X263929Y-1652357D01*
X278214Y-1623786D01*
X292500Y-1609500D01*
X321071Y-1595214D01*
X549643Y-1866643D02*
X563929Y-1880929D01*
X549643Y-1895214D01*
X535357Y-1880929D01*
X549643Y-1866643D01*
X549643Y-1895214D01*
X821071Y-1595214D02*
X763928Y-1595214D01*
X735357Y-1609500D01*
X721071Y-1623786D01*
X692500Y-1666643D01*
X678214Y-1723786D01*
X678214Y-1838071D01*
X692500Y-1866643D01*
X706786Y-1880929D01*
X735357Y-1895214D01*
X792500Y-1895214D01*
X821071Y-1880929D01*
X835357Y-1866643D01*
X849643Y-1838071D01*
X849643Y-1766643D01*
X835357Y-1738071D01*
X821071Y-1723786D01*
X792500Y-1709500D01*
X735357Y-1709500D01*
X706786Y-1723786D01*
X692500Y-1738071D01*
X678214Y-1766643D01*
X1035357Y-1595214D02*
X1063929Y-1595214D01*
X1092500Y-1609500D01*
X1106786Y-1623786D01*
X1121071Y-1652357D01*
X1135357Y-1709500D01*
X1135357Y-1780929D01*
X1121071Y-1838071D01*
X1106786Y-1866643D01*
X1092500Y-1880929D01*
X1063929Y-1895214D01*
X1035357Y-1895214D01*
X1006786Y-1880929D01*
X992500Y-1866643D01*
X978214Y-1838071D01*
X963928Y-1780929D01*
X963928Y-1709500D01*
X978214Y-1652357D01*
X992500Y-1623786D01*
X1006786Y-1609500D01*
X1035357Y-1595214D01*
X1263929Y-1895214D02*
X1263929Y-1695214D01*
X1263929Y-1723786D02*
X1278214Y-1709500D01*
X1306786Y-1695214D01*
X1349643Y-1695214D01*
X1378214Y-1709500D01*
X1392500Y-1738071D01*
X1392500Y-1895214D01*
X1392500Y-1738071D02*
X1406786Y-1709500D01*
X1435357Y-1695214D01*
X1478214Y-1695214D01*
X1506786Y-1709500D01*
X1521071Y-1738071D01*
X1521071Y-1895214D01*
X1663928Y-1895214D02*
X1663928Y-1695214D01*
X1663928Y-1723786D02*
X1678214Y-1709500D01*
X1706786Y-1695214D01*
X1749643Y-1695214D01*
X1778214Y-1709500D01*
X1792500Y-1738071D01*
X1792500Y-1895214D01*
X1792500Y-1738071D02*
X1806786Y-1709500D01*
X1835357Y-1695214D01*
X1878214Y-1695214D01*
X1906786Y-1709500D01*
X1921071Y-1738071D01*
X1921071Y-1895214D01*
X2506786Y-1580929D02*
X2249643Y-1966643D01*
X2892500Y-1595214D02*
X2921071Y-1595214D01*
X2949643Y-1609500D01*
X2963928Y-1623786D01*
X2978214Y-1652357D01*
X2992500Y-1709500D01*
X2992500Y-1780929D01*
X2978214Y-1838071D01*
X2963928Y-1866643D01*
X2949643Y-1880929D01*
X2921071Y-1895214D01*
X2892500Y-1895214D01*
X2863928Y-1880929D01*
X2849643Y-1866643D01*
X2835357Y-1838071D01*
X2821071Y-1780929D01*
X2821071Y-1709500D01*
X2835357Y-1652357D01*
X2849643Y-1623786D01*
X2863928Y-1609500D01*
X2892500Y-1595214D01*
X3121071Y-1866643D02*
X3135357Y-1880929D01*
X3121071Y-1895214D01*
X3106786Y-1880929D01*
X3121071Y-1866643D01*
X3121071Y-1895214D01*
X3321071Y-1595214D02*
X3349643Y-1595214D01*
X3378214Y-1609500D01*
X3392500Y-1623786D01*
X3406785Y-1652357D01*
X3421071Y-1709500D01*
X3421071Y-1780929D01*
X3406785Y-1838071D01*
X3392500Y-1866643D01*
X3378214Y-1880929D01*
X3349643Y-1895214D01*
X3321071Y-1895214D01*
X3292500Y-1880929D01*
X3278214Y-1866643D01*
X3263928Y-1838071D01*
X3249643Y-1780929D01*
X3249643Y-1709500D01*
X3263928Y-1652357D01*
X3278214Y-1623786D01*
X3292500Y-1609500D01*
X3321071Y-1595214D01*
X3535357Y-1623786D02*
X3549643Y-1609500D01*
X3578214Y-1595214D01*
X3649643Y-1595214D01*
X3678214Y-1609500D01*
X3692500Y-1623786D01*
X3706785Y-1652357D01*
X3706785Y-1680929D01*
X3692500Y-1723786D01*
X3521071Y-1895214D01*
X3706785Y-1895214D01*
X3963928Y-1695214D02*
X3963928Y-1895214D01*
X3892500Y-1580929D02*
X3821071Y-1795214D01*
X4006785Y-1795214D01*
X4106786Y-1595214D02*
X4106786Y-1652357D01*
X4221071Y-1595214D02*
X4221071Y-1652357D01*
X4663928Y-2009500D02*
X4649643Y-1995214D01*
X4621071Y-1952357D01*
X4606786Y-1923786D01*
X4592500Y-1880929D01*
X4578214Y-1809500D01*
X4578214Y-1752357D01*
X4592500Y-1680929D01*
X4606786Y-1638071D01*
X4621071Y-1609500D01*
X4649643Y-1566643D01*
X4663928Y-1552357D01*
X4763928Y-1623786D02*
X4778214Y-1609500D01*
X4806786Y-1595214D01*
X4878214Y-1595214D01*
X4906786Y-1609500D01*
X4921071Y-1623786D01*
X4935357Y-1652357D01*
X4935357Y-1680929D01*
X4921071Y-1723786D01*
X4749643Y-1895214D01*
X4935357Y-1895214D01*
X5292500Y-1895214D02*
X5292500Y-1595214D01*
X5421071Y-1895214D02*
X5421071Y-1738071D01*
X5406786Y-1709500D01*
X5378214Y-1695214D01*
X5335357Y-1695214D01*
X5306786Y-1709500D01*
X5292500Y-1723786D01*
X5606785Y-1895214D02*
X5578214Y-1880929D01*
X5563928Y-1866643D01*
X5549643Y-1838071D01*
X5549643Y-1752357D01*
X5563928Y-1723786D01*
X5578214Y-1709500D01*
X5606785Y-1695214D01*
X5649643Y-1695214D01*
X5678214Y-1709500D01*
X5692500Y-1723786D01*
X5706785Y-1752357D01*
X5706785Y-1838071D01*
X5692500Y-1866643D01*
X5678214Y-1880929D01*
X5649643Y-1895214D01*
X5606785Y-1895214D01*
X5878214Y-1895214D02*
X5849643Y-1880929D01*
X5835357Y-1852357D01*
X5835357Y-1595214D01*
X6106786Y-1880929D02*
X6078214Y-1895214D01*
X6021071Y-1895214D01*
X5992500Y-1880929D01*
X5978214Y-1852357D01*
X5978214Y-1738071D01*
X5992500Y-1709500D01*
X6021071Y-1695214D01*
X6078214Y-1695214D01*
X6106786Y-1709500D01*
X6121071Y-1738071D01*
X6121071Y-1766643D01*
X5978214Y-1795214D01*
X6235357Y-1880929D02*
X6263928Y-1895214D01*
X6321071Y-1895214D01*
X6349643Y-1880929D01*
X6363928Y-1852357D01*
X6363928Y-1838071D01*
X6349643Y-1809500D01*
X6321071Y-1795214D01*
X6278214Y-1795214D01*
X6249643Y-1780929D01*
X6235357Y-1752357D01*
X6235357Y-1738071D01*
X6249643Y-1709500D01*
X6278214Y-1695214D01*
X6321071Y-1695214D01*
X6349643Y-1709500D01*
X6463928Y-2009500D02*
X6478214Y-1995214D01*
X6506786Y-1952357D01*
X6521071Y-1923786D01*
X6535357Y-1880929D01*
X6549643Y-1809500D01*
X6549643Y-1752357D01*
X6535357Y-1680929D01*
X6521071Y-1638071D01*
X6506786Y-1609500D01*
X6478214Y-1566643D01*
X6463928Y-1552357D01*
X-19216Y-2183785D02*
X-19216Y-2127216D01*
X-75785Y-2127216D01*
X-75785Y-2183785D01*
X-19216Y-2183785D01*
X321071Y-1991214D02*
X349643Y-1991214D01*
X378214Y-2005500D01*
X392500Y-2019786D01*
X406786Y-2048357D01*
X421071Y-2105500D01*
X421071Y-2176929D01*
X406786Y-2234072D01*
X392500Y-2262643D01*
X378214Y-2276929D01*
X349643Y-2291214D01*
X321071Y-2291214D01*
X292500Y-2276929D01*
X278214Y-2262643D01*
X263929Y-2234072D01*
X249643Y-2176929D01*
X249643Y-2105500D01*
X263929Y-2048357D01*
X278214Y-2019786D01*
X292500Y-2005500D01*
X321071Y-1991214D01*
X549643Y-2262643D02*
X563929Y-2276929D01*
X549643Y-2291214D01*
X535357Y-2276929D01*
X549643Y-2262643D01*
X549643Y-2291214D01*
X735357Y-2119786D02*
X706786Y-2105500D01*
X692500Y-2091214D01*
X678214Y-2062643D01*
X678214Y-2048357D01*
X692500Y-2019786D01*
X706786Y-2005500D01*
X735357Y-1991214D01*
X792500Y-1991214D01*
X821071Y-2005500D01*
X835357Y-2019786D01*
X849643Y-2048357D01*
X849643Y-2062643D01*
X835357Y-2091214D01*
X821071Y-2105500D01*
X792500Y-2119786D01*
X735357Y-2119786D01*
X706786Y-2134072D01*
X692500Y-2148357D01*
X678214Y-2176929D01*
X678214Y-2234072D01*
X692500Y-2262643D01*
X706786Y-2276929D01*
X735357Y-2291214D01*
X792500Y-2291214D01*
X821071Y-2276929D01*
X835357Y-2262643D01*
X849643Y-2234072D01*
X849643Y-2176929D01*
X835357Y-2148357D01*
X821071Y-2134072D01*
X792500Y-2119786D01*
X1035357Y-1991214D02*
X1063929Y-1991214D01*
X1092500Y-2005500D01*
X1106786Y-2019786D01*
X1121071Y-2048357D01*
X1135357Y-2105500D01*
X1135357Y-2176929D01*
X1121071Y-2234072D01*
X1106786Y-2262643D01*
X1092500Y-2276929D01*
X1063929Y-2291214D01*
X1035357Y-2291214D01*
X1006786Y-2276929D01*
X992500Y-2262643D01*
X978214Y-2234072D01*
X963928Y-2176929D01*
X963928Y-2105500D01*
X978214Y-2048357D01*
X992500Y-2019786D01*
X1006786Y-2005500D01*
X1035357Y-1991214D01*
X1263929Y-2291214D02*
X1263929Y-2091214D01*
X1263929Y-2119786D02*
X1278214Y-2105500D01*
X1306786Y-2091214D01*
X1349643Y-2091214D01*
X1378214Y-2105500D01*
X1392500Y-2134072D01*
X1392500Y-2291214D01*
X1392500Y-2134072D02*
X1406786Y-2105500D01*
X1435357Y-2091214D01*
X1478214Y-2091214D01*
X1506786Y-2105500D01*
X1521071Y-2134072D01*
X1521071Y-2291214D01*
X1663928Y-2291214D02*
X1663928Y-2091214D01*
X1663928Y-2119786D02*
X1678214Y-2105500D01*
X1706786Y-2091214D01*
X1749643Y-2091214D01*
X1778214Y-2105500D01*
X1792500Y-2134072D01*
X1792500Y-2291214D01*
X1792500Y-2134072D02*
X1806786Y-2105500D01*
X1835357Y-2091214D01*
X1878214Y-2091214D01*
X1906786Y-2105500D01*
X1921071Y-2134072D01*
X1921071Y-2291214D01*
X2506786Y-1976929D02*
X2249643Y-2362643D01*
X2892500Y-1991214D02*
X2921071Y-1991214D01*
X2949643Y-2005500D01*
X2963928Y-2019786D01*
X2978214Y-2048357D01*
X2992500Y-2105500D01*
X2992500Y-2176929D01*
X2978214Y-2234072D01*
X2963928Y-2262643D01*
X2949643Y-2276929D01*
X2921071Y-2291214D01*
X2892500Y-2291214D01*
X2863928Y-2276929D01*
X2849643Y-2262643D01*
X2835357Y-2234072D01*
X2821071Y-2176929D01*
X2821071Y-2105500D01*
X2835357Y-2048357D01*
X2849643Y-2019786D01*
X2863928Y-2005500D01*
X2892500Y-1991214D01*
X3121071Y-2262643D02*
X3135357Y-2276929D01*
X3121071Y-2291214D01*
X3106786Y-2276929D01*
X3121071Y-2262643D01*
X3121071Y-2291214D01*
X3321071Y-1991214D02*
X3349643Y-1991214D01*
X3378214Y-2005500D01*
X3392500Y-2019786D01*
X3406785Y-2048357D01*
X3421071Y-2105500D01*
X3421071Y-2176929D01*
X3406785Y-2234072D01*
X3392500Y-2262643D01*
X3378214Y-2276929D01*
X3349643Y-2291214D01*
X3321071Y-2291214D01*
X3292500Y-2276929D01*
X3278214Y-2262643D01*
X3263928Y-2234072D01*
X3249643Y-2176929D01*
X3249643Y-2105500D01*
X3263928Y-2048357D01*
X3278214Y-2019786D01*
X3292500Y-2005500D01*
X3321071Y-1991214D01*
X3521071Y-1991214D02*
X3706785Y-1991214D01*
X3606785Y-2105500D01*
X3649643Y-2105500D01*
X3678214Y-2119786D01*
X3692500Y-2134072D01*
X3706785Y-2162643D01*
X3706785Y-2234072D01*
X3692500Y-2262643D01*
X3678214Y-2276929D01*
X3649643Y-2291214D01*
X3563928Y-2291214D01*
X3535357Y-2276929D01*
X3521071Y-2262643D01*
X3992500Y-2291214D02*
X3821071Y-2291214D01*
X3906785Y-2291214D02*
X3906785Y-1991214D01*
X3878214Y-2034071D01*
X3849643Y-2062643D01*
X3821071Y-2076929D01*
X4106786Y-1991214D02*
X4106786Y-2048357D01*
X4221071Y-1991214D02*
X4221071Y-2048357D01*
X4663928Y-2405500D02*
X4649643Y-2391214D01*
X4621071Y-2348357D01*
X4606786Y-2319786D01*
X4592500Y-2276929D01*
X4578214Y-2205500D01*
X4578214Y-2148357D01*
X4592500Y-2076929D01*
X4606786Y-2034071D01*
X4621071Y-2005500D01*
X4649643Y-1962643D01*
X4663928Y-1948357D01*
X4906786Y-2091214D02*
X4906786Y-2291214D01*
X4835357Y-1976929D02*
X4763928Y-2191214D01*
X4949643Y-2191214D01*
X5292500Y-2291214D02*
X5292500Y-1991214D01*
X5421071Y-2291214D02*
X5421071Y-2134072D01*
X5406786Y-2105500D01*
X5378214Y-2091214D01*
X5335357Y-2091214D01*
X5306786Y-2105500D01*
X5292500Y-2119786D01*
X5606785Y-2291214D02*
X5578214Y-2276929D01*
X5563928Y-2262643D01*
X5549643Y-2234072D01*
X5549643Y-2148357D01*
X5563928Y-2119786D01*
X5578214Y-2105500D01*
X5606785Y-2091214D01*
X5649643Y-2091214D01*
X5678214Y-2105500D01*
X5692500Y-2119786D01*
X5706785Y-2148357D01*
X5706785Y-2234072D01*
X5692500Y-2262643D01*
X5678214Y-2276929D01*
X5649643Y-2291214D01*
X5606785Y-2291214D01*
X5878214Y-2291214D02*
X5849643Y-2276929D01*
X5835357Y-2248357D01*
X5835357Y-1991214D01*
X6106786Y-2276929D02*
X6078214Y-2291214D01*
X6021071Y-2291214D01*
X5992500Y-2276929D01*
X5978214Y-2248357D01*
X5978214Y-2134072D01*
X5992500Y-2105500D01*
X6021071Y-2091214D01*
X6078214Y-2091214D01*
X6106786Y-2105500D01*
X6121071Y-2134072D01*
X6121071Y-2162643D01*
X5978214Y-2191214D01*
X6235357Y-2276929D02*
X6263928Y-2291214D01*
X6321071Y-2291214D01*
X6349643Y-2276929D01*
X6363928Y-2248357D01*
X6363928Y-2234072D01*
X6349643Y-2205500D01*
X6321071Y-2191214D01*
X6278214Y-2191214D01*
X6249643Y-2176929D01*
X6235357Y-2148357D01*
X6235357Y-2134072D01*
X6249643Y-2105500D01*
X6278214Y-2091214D01*
X6321071Y-2091214D01*
X6349643Y-2105500D01*
X6463928Y-2405500D02*
X6478214Y-2391214D01*
X6506786Y-2348357D01*
X6521071Y-2319786D01*
X6535357Y-2276929D01*
X6549643Y-2205500D01*
X6549643Y-2148357D01*
X6535357Y-2076929D01*
X6521071Y-2034071D01*
X6506786Y-2005500D01*
X6478214Y-1962643D01*
X6463928Y-1948357D01*
X-57500Y-2601500D02*
X-7500Y-2551500D01*
X-57500Y-2501500D01*
X-107500Y-2551500D01*
X-57500Y-2601500D01*
X421071Y-2687214D02*
X249643Y-2687214D01*
X335357Y-2687214D02*
X335357Y-2387214D01*
X306786Y-2430072D01*
X278214Y-2458643D01*
X249643Y-2472929D01*
X549643Y-2658643D02*
X563929Y-2672929D01*
X549643Y-2687214D01*
X535357Y-2672929D01*
X549643Y-2658643D01*
X549643Y-2687214D01*
X749643Y-2387214D02*
X778214Y-2387214D01*
X806786Y-2401500D01*
X821071Y-2415786D01*
X835357Y-2444357D01*
X849643Y-2501500D01*
X849643Y-2572929D01*
X835357Y-2630072D01*
X821071Y-2658643D01*
X806786Y-2672929D01*
X778214Y-2687214D01*
X749643Y-2687214D01*
X721071Y-2672929D01*
X706786Y-2658643D01*
X692500Y-2630072D01*
X678214Y-2572929D01*
X678214Y-2501500D01*
X692500Y-2444357D01*
X706786Y-2415786D01*
X721071Y-2401500D01*
X749643Y-2387214D01*
X1035357Y-2387214D02*
X1063929Y-2387214D01*
X1092500Y-2401500D01*
X1106786Y-2415786D01*
X1121071Y-2444357D01*
X1135357Y-2501500D01*
X1135357Y-2572929D01*
X1121071Y-2630072D01*
X1106786Y-2658643D01*
X1092500Y-2672929D01*
X1063929Y-2687214D01*
X1035357Y-2687214D01*
X1006786Y-2672929D01*
X992500Y-2658643D01*
X978214Y-2630072D01*
X963928Y-2572929D01*
X963928Y-2501500D01*
X978214Y-2444357D01*
X992500Y-2415786D01*
X1006786Y-2401500D01*
X1035357Y-2387214D01*
X1263929Y-2687214D02*
X1263929Y-2487214D01*
X1263929Y-2515786D02*
X1278214Y-2501500D01*
X1306786Y-2487214D01*
X1349643Y-2487214D01*
X1378214Y-2501500D01*
X1392500Y-2530072D01*
X1392500Y-2687214D01*
X1392500Y-2530072D02*
X1406786Y-2501500D01*
X1435357Y-2487214D01*
X1478214Y-2487214D01*
X1506786Y-2501500D01*
X1521071Y-2530072D01*
X1521071Y-2687214D01*
X1663928Y-2687214D02*
X1663928Y-2487214D01*
X1663928Y-2515786D02*
X1678214Y-2501500D01*
X1706786Y-2487214D01*
X1749643Y-2487214D01*
X1778214Y-2501500D01*
X1792500Y-2530072D01*
X1792500Y-2687214D01*
X1792500Y-2530072D02*
X1806786Y-2501500D01*
X1835357Y-2487214D01*
X1878214Y-2487214D01*
X1906786Y-2501500D01*
X1921071Y-2530072D01*
X1921071Y-2687214D01*
X2506786Y-2372929D02*
X2249643Y-2758643D01*
X2892500Y-2387214D02*
X2921071Y-2387214D01*
X2949643Y-2401500D01*
X2963928Y-2415786D01*
X2978214Y-2444357D01*
X2992500Y-2501500D01*
X2992500Y-2572929D01*
X2978214Y-2630072D01*
X2963928Y-2658643D01*
X2949643Y-2672929D01*
X2921071Y-2687214D01*
X2892500Y-2687214D01*
X2863928Y-2672929D01*
X2849643Y-2658643D01*
X2835357Y-2630072D01*
X2821071Y-2572929D01*
X2821071Y-2501500D01*
X2835357Y-2444357D01*
X2849643Y-2415786D01*
X2863928Y-2401500D01*
X2892500Y-2387214D01*
X3121071Y-2658643D02*
X3135357Y-2672929D01*
X3121071Y-2687214D01*
X3106786Y-2672929D01*
X3121071Y-2658643D01*
X3121071Y-2687214D01*
X3321071Y-2387214D02*
X3349643Y-2387214D01*
X3378214Y-2401500D01*
X3392500Y-2415786D01*
X3406785Y-2444357D01*
X3421071Y-2501500D01*
X3421071Y-2572929D01*
X3406785Y-2630072D01*
X3392500Y-2658643D01*
X3378214Y-2672929D01*
X3349643Y-2687214D01*
X3321071Y-2687214D01*
X3292500Y-2672929D01*
X3278214Y-2658643D01*
X3263928Y-2630072D01*
X3249643Y-2572929D01*
X3249643Y-2501500D01*
X3263928Y-2444357D01*
X3278214Y-2415786D01*
X3292500Y-2401500D01*
X3321071Y-2387214D01*
X3521071Y-2387214D02*
X3706785Y-2387214D01*
X3606785Y-2501500D01*
X3649643Y-2501500D01*
X3678214Y-2515786D01*
X3692500Y-2530072D01*
X3706785Y-2558643D01*
X3706785Y-2630072D01*
X3692500Y-2658643D01*
X3678214Y-2672929D01*
X3649643Y-2687214D01*
X3563928Y-2687214D01*
X3535357Y-2672929D01*
X3521071Y-2658643D01*
X3849643Y-2687214D02*
X3906785Y-2687214D01*
X3935357Y-2672929D01*
X3949643Y-2658643D01*
X3978214Y-2615786D01*
X3992500Y-2558643D01*
X3992500Y-2444357D01*
X3978214Y-2415786D01*
X3963928Y-2401500D01*
X3935357Y-2387214D01*
X3878214Y-2387214D01*
X3849643Y-2401500D01*
X3835357Y-2415786D01*
X3821071Y-2444357D01*
X3821071Y-2515786D01*
X3835357Y-2544357D01*
X3849643Y-2558643D01*
X3878214Y-2572929D01*
X3935357Y-2572929D01*
X3963928Y-2558643D01*
X3978214Y-2544357D01*
X3992500Y-2515786D01*
X4106786Y-2387214D02*
X4106786Y-2444357D01*
X4221071Y-2387214D02*
X4221071Y-2444357D01*
X4663928Y-2801500D02*
X4649643Y-2787214D01*
X4621071Y-2744357D01*
X4606786Y-2715786D01*
X4592500Y-2672929D01*
X4578214Y-2601500D01*
X4578214Y-2544357D01*
X4592500Y-2472929D01*
X4606786Y-2430072D01*
X4621071Y-2401500D01*
X4649643Y-2358643D01*
X4663928Y-2344357D01*
X4935357Y-2687214D02*
X4763928Y-2687214D01*
X4849643Y-2687214D02*
X4849643Y-2387214D01*
X4821071Y-2430072D01*
X4792500Y-2458643D01*
X4763928Y-2472929D01*
X5192500Y-2387214D02*
X5135357Y-2387214D01*
X5106786Y-2401500D01*
X5092500Y-2415786D01*
X5063928Y-2458643D01*
X5049643Y-2515786D01*
X5049643Y-2630072D01*
X5063928Y-2658643D01*
X5078214Y-2672929D01*
X5106786Y-2687214D01*
X5163928Y-2687214D01*
X5192500Y-2672929D01*
X5206786Y-2658643D01*
X5221071Y-2630072D01*
X5221071Y-2558643D01*
X5206786Y-2530072D01*
X5192500Y-2515786D01*
X5163928Y-2501500D01*
X5106786Y-2501500D01*
X5078214Y-2515786D01*
X5063928Y-2530072D01*
X5049643Y-2558643D01*
X5578214Y-2687214D02*
X5578214Y-2387214D01*
X5706785Y-2687214D02*
X5706785Y-2530072D01*
X5692500Y-2501500D01*
X5663928Y-2487214D01*
X5621071Y-2487214D01*
X5592500Y-2501500D01*
X5578214Y-2515786D01*
X5892500Y-2687214D02*
X5863928Y-2672929D01*
X5849643Y-2658643D01*
X5835357Y-2630072D01*
X5835357Y-2544357D01*
X5849643Y-2515786D01*
X5863928Y-2501500D01*
X5892500Y-2487214D01*
X5935357Y-2487214D01*
X5963928Y-2501500D01*
X5978214Y-2515786D01*
X5992500Y-2544357D01*
X5992500Y-2630072D01*
X5978214Y-2658643D01*
X5963928Y-2672929D01*
X5935357Y-2687214D01*
X5892500Y-2687214D01*
X6163928Y-2687214D02*
X6135357Y-2672929D01*
X6121071Y-2644357D01*
X6121071Y-2387214D01*
X6392500Y-2672929D02*
X6363928Y-2687214D01*
X6306786Y-2687214D01*
X6278214Y-2672929D01*
X6263928Y-2644357D01*
X6263928Y-2530072D01*
X6278214Y-2501500D01*
X6306786Y-2487214D01*
X6363928Y-2487214D01*
X6392500Y-2501500D01*
X6406786Y-2530072D01*
X6406786Y-2558643D01*
X6263928Y-2587214D01*
X6521071Y-2672929D02*
X6549643Y-2687214D01*
X6606786Y-2687214D01*
X6635357Y-2672929D01*
X6649643Y-2644357D01*
X6649643Y-2630072D01*
X6635357Y-2601500D01*
X6606786Y-2587214D01*
X6563928Y-2587214D01*
X6535357Y-2572929D01*
X6521071Y-2544357D01*
X6521071Y-2530072D01*
X6535357Y-2501500D01*
X6563928Y-2487214D01*
X6606786Y-2487214D01*
X6635357Y-2501500D01*
X6749643Y-2801500D02*
X6763928Y-2787214D01*
X6792500Y-2744357D01*
X6806786Y-2715786D01*
X6821071Y-2672929D01*
X6835357Y-2601500D01*
X6835357Y-2544357D01*
X6821071Y-2472929D01*
X6806786Y-2430072D01*
X6792500Y-2401500D01*
X6763928Y-2358643D01*
X6749643Y-2344357D01*
X-112500Y-2895000D02*
X-7500Y-3000000D01*
X-7500Y-2895000D02*
X-112500Y-3000000D01*
X-7500Y-2947500D02*
G75*
G03X-7500Y-2947500I-52500J0D01*
G01*
X421071Y-3083214D02*
X249643Y-3083214D01*
X335357Y-3083214D02*
X335357Y-2783214D01*
X306786Y-2826071D01*
X278214Y-2854643D01*
X249643Y-2868929D01*
X549643Y-3054643D02*
X563929Y-3068929D01*
X549643Y-3083214D01*
X535357Y-3068929D01*
X549643Y-3054643D01*
X549643Y-3083214D01*
X749643Y-2783214D02*
X778214Y-2783214D01*
X806786Y-2797500D01*
X821071Y-2811786D01*
X835357Y-2840357D01*
X849643Y-2897500D01*
X849643Y-2968929D01*
X835357Y-3026071D01*
X821071Y-3054643D01*
X806786Y-3068929D01*
X778214Y-3083214D01*
X749643Y-3083214D01*
X721071Y-3068929D01*
X706786Y-3054643D01*
X692500Y-3026071D01*
X678214Y-2968929D01*
X678214Y-2897500D01*
X692500Y-2840357D01*
X706786Y-2811786D01*
X721071Y-2797500D01*
X749643Y-2783214D01*
X1121071Y-2783214D02*
X978214Y-2783214D01*
X963928Y-2926071D01*
X978214Y-2911786D01*
X1006786Y-2897500D01*
X1078214Y-2897500D01*
X1106786Y-2911786D01*
X1121071Y-2926071D01*
X1135357Y-2954643D01*
X1135357Y-3026071D01*
X1121071Y-3054643D01*
X1106786Y-3068929D01*
X1078214Y-3083214D01*
X1006786Y-3083214D01*
X978214Y-3068929D01*
X963928Y-3054643D01*
X1263929Y-3083214D02*
X1263929Y-2883214D01*
X1263929Y-2911786D02*
X1278214Y-2897500D01*
X1306786Y-2883214D01*
X1349643Y-2883214D01*
X1378214Y-2897500D01*
X1392500Y-2926071D01*
X1392500Y-3083214D01*
X1392500Y-2926071D02*
X1406786Y-2897500D01*
X1435357Y-2883214D01*
X1478214Y-2883214D01*
X1506786Y-2897500D01*
X1521071Y-2926071D01*
X1521071Y-3083214D01*
X1663928Y-3083214D02*
X1663928Y-2883214D01*
X1663928Y-2911786D02*
X1678214Y-2897500D01*
X1706786Y-2883214D01*
X1749643Y-2883214D01*
X1778214Y-2897500D01*
X1792500Y-2926071D01*
X1792500Y-3083214D01*
X1792500Y-2926071D02*
X1806786Y-2897500D01*
X1835357Y-2883214D01*
X1878214Y-2883214D01*
X1906786Y-2897500D01*
X1921071Y-2926071D01*
X1921071Y-3083214D01*
X2506786Y-2768929D02*
X2249643Y-3154643D01*
X2892500Y-2783214D02*
X2921071Y-2783214D01*
X2949643Y-2797500D01*
X2963928Y-2811786D01*
X2978214Y-2840357D01*
X2992500Y-2897500D01*
X2992500Y-2968929D01*
X2978214Y-3026071D01*
X2963928Y-3054643D01*
X2949643Y-3068929D01*
X2921071Y-3083214D01*
X2892500Y-3083214D01*
X2863928Y-3068929D01*
X2849643Y-3054643D01*
X2835357Y-3026071D01*
X2821071Y-2968929D01*
X2821071Y-2897500D01*
X2835357Y-2840357D01*
X2849643Y-2811786D01*
X2863928Y-2797500D01*
X2892500Y-2783214D01*
X3121071Y-3054643D02*
X3135357Y-3068929D01*
X3121071Y-3083214D01*
X3106786Y-3068929D01*
X3121071Y-3054643D01*
X3121071Y-3083214D01*
X3321071Y-2783214D02*
X3349643Y-2783214D01*
X3378214Y-2797500D01*
X3392500Y-2811786D01*
X3406785Y-2840357D01*
X3421071Y-2897500D01*
X3421071Y-2968929D01*
X3406785Y-3026071D01*
X3392500Y-3054643D01*
X3378214Y-3068929D01*
X3349643Y-3083214D01*
X3321071Y-3083214D01*
X3292500Y-3068929D01*
X3278214Y-3054643D01*
X3263928Y-3026071D01*
X3249643Y-2968929D01*
X3249643Y-2897500D01*
X3263928Y-2840357D01*
X3278214Y-2811786D01*
X3292500Y-2797500D01*
X3321071Y-2783214D01*
X3678214Y-2883214D02*
X3678214Y-3083214D01*
X3606785Y-2768929D02*
X3535357Y-2983214D01*
X3721071Y-2983214D01*
X3992500Y-3083214D02*
X3821071Y-3083214D01*
X3906785Y-3083214D02*
X3906785Y-2783214D01*
X3878214Y-2826071D01*
X3849643Y-2854643D01*
X3821071Y-2868929D01*
X4106786Y-2783214D02*
X4106786Y-2840357D01*
X4221071Y-2783214D02*
X4221071Y-2840357D01*
X4663928Y-3197500D02*
X4649643Y-3183214D01*
X4621071Y-3140357D01*
X4606786Y-3111786D01*
X4592500Y-3068929D01*
X4578214Y-2997500D01*
X4578214Y-2940357D01*
X4592500Y-2868929D01*
X4606786Y-2826071D01*
X4621071Y-2797500D01*
X4649643Y-2754643D01*
X4663928Y-2740357D01*
X4906786Y-2783214D02*
X4849643Y-2783214D01*
X4821071Y-2797500D01*
X4806786Y-2811786D01*
X4778214Y-2854643D01*
X4763928Y-2911786D01*
X4763928Y-3026071D01*
X4778214Y-3054643D01*
X4792500Y-3068929D01*
X4821071Y-3083214D01*
X4878214Y-3083214D01*
X4906786Y-3068929D01*
X4921071Y-3054643D01*
X4935357Y-3026071D01*
X4935357Y-2954643D01*
X4921071Y-2926071D01*
X4906786Y-2911786D01*
X4878214Y-2897500D01*
X4821071Y-2897500D01*
X4792500Y-2911786D01*
X4778214Y-2926071D01*
X4763928Y-2954643D01*
X5292500Y-3083214D02*
X5292500Y-2783214D01*
X5421071Y-3083214D02*
X5421071Y-2926071D01*
X5406786Y-2897500D01*
X5378214Y-2883214D01*
X5335357Y-2883214D01*
X5306786Y-2897500D01*
X5292500Y-2911786D01*
X5606785Y-3083214D02*
X5578214Y-3068929D01*
X5563928Y-3054643D01*
X5549643Y-3026071D01*
X5549643Y-2940357D01*
X5563928Y-2911786D01*
X5578214Y-2897500D01*
X5606785Y-2883214D01*
X5649643Y-2883214D01*
X5678214Y-2897500D01*
X5692500Y-2911786D01*
X5706785Y-2940357D01*
X5706785Y-3026071D01*
X5692500Y-3054643D01*
X5678214Y-3068929D01*
X5649643Y-3083214D01*
X5606785Y-3083214D01*
X5878214Y-3083214D02*
X5849643Y-3068929D01*
X5835357Y-3040357D01*
X5835357Y-2783214D01*
X6106786Y-3068929D02*
X6078214Y-3083214D01*
X6021071Y-3083214D01*
X5992500Y-3068929D01*
X5978214Y-3040357D01*
X5978214Y-2926071D01*
X5992500Y-2897500D01*
X6021071Y-2883214D01*
X6078214Y-2883214D01*
X6106786Y-2897500D01*
X6121071Y-2926071D01*
X6121071Y-2954643D01*
X5978214Y-2983214D01*
X6235357Y-3068929D02*
X6263928Y-3083214D01*
X6321071Y-3083214D01*
X6349643Y-3068929D01*
X6363928Y-3040357D01*
X6363928Y-3026071D01*
X6349643Y-2997500D01*
X6321071Y-2983214D01*
X6278214Y-2983214D01*
X6249643Y-2968929D01*
X6235357Y-2940357D01*
X6235357Y-2926071D01*
X6249643Y-2897500D01*
X6278214Y-2883214D01*
X6321071Y-2883214D01*
X6349643Y-2897500D01*
X6463928Y-3197500D02*
X6478214Y-3183214D01*
X6506786Y-3140357D01*
X6521071Y-3111786D01*
X6535357Y-3068929D01*
X6549643Y-2997500D01*
X6549643Y-2940357D01*
X6535357Y-2868929D01*
X6521071Y-2826071D01*
X6506786Y-2797500D01*
X6478214Y-2754643D01*
X6463928Y-2740357D01*
X-172500Y-3261000D02*
X-7500Y-3426000D01*
X-7500Y-3261000D02*
X-172500Y-3426000D01*
X-90000Y-3261000D02*
X-90000Y-3426000D01*
X-172500Y-3343500D02*
X-7500Y-3343500D01*
X421071Y-3479214D02*
X249643Y-3479214D01*
X335357Y-3479214D02*
X335357Y-3179214D01*
X306786Y-3222071D01*
X278214Y-3250643D01*
X249643Y-3264929D01*
X549643Y-3450643D02*
X563929Y-3464929D01*
X549643Y-3479214D01*
X535357Y-3464929D01*
X549643Y-3450643D01*
X549643Y-3479214D01*
X821071Y-3179214D02*
X763928Y-3179214D01*
X735357Y-3193500D01*
X721071Y-3207786D01*
X692500Y-3250643D01*
X678214Y-3307786D01*
X678214Y-3422071D01*
X692500Y-3450643D01*
X706786Y-3464929D01*
X735357Y-3479214D01*
X792500Y-3479214D01*
X821071Y-3464929D01*
X835357Y-3450643D01*
X849643Y-3422071D01*
X849643Y-3350643D01*
X835357Y-3322071D01*
X821071Y-3307786D01*
X792500Y-3293500D01*
X735357Y-3293500D01*
X706786Y-3307786D01*
X692500Y-3322071D01*
X678214Y-3350643D01*
X1121071Y-3179214D02*
X978214Y-3179214D01*
X963928Y-3322071D01*
X978214Y-3307786D01*
X1006786Y-3293500D01*
X1078214Y-3293500D01*
X1106786Y-3307786D01*
X1121071Y-3322071D01*
X1135357Y-3350643D01*
X1135357Y-3422071D01*
X1121071Y-3450643D01*
X1106786Y-3464929D01*
X1078214Y-3479214D01*
X1006786Y-3479214D01*
X978214Y-3464929D01*
X963928Y-3450643D01*
X1263929Y-3479214D02*
X1263929Y-3279214D01*
X1263929Y-3307786D02*
X1278214Y-3293500D01*
X1306786Y-3279214D01*
X1349643Y-3279214D01*
X1378214Y-3293500D01*
X1392500Y-3322071D01*
X1392500Y-3479214D01*
X1392500Y-3322071D02*
X1406786Y-3293500D01*
X1435357Y-3279214D01*
X1478214Y-3279214D01*
X1506786Y-3293500D01*
X1521071Y-3322071D01*
X1521071Y-3479214D01*
X1663928Y-3479214D02*
X1663928Y-3279214D01*
X1663928Y-3307786D02*
X1678214Y-3293500D01*
X1706786Y-3279214D01*
X1749643Y-3279214D01*
X1778214Y-3293500D01*
X1792500Y-3322071D01*
X1792500Y-3479214D01*
X1792500Y-3322071D02*
X1806786Y-3293500D01*
X1835357Y-3279214D01*
X1878214Y-3279214D01*
X1906786Y-3293500D01*
X1921071Y-3322071D01*
X1921071Y-3479214D01*
X2506786Y-3164929D02*
X2249643Y-3550643D01*
X2892500Y-3179214D02*
X2921071Y-3179214D01*
X2949643Y-3193500D01*
X2963928Y-3207786D01*
X2978214Y-3236357D01*
X2992500Y-3293500D01*
X2992500Y-3364929D01*
X2978214Y-3422071D01*
X2963928Y-3450643D01*
X2949643Y-3464929D01*
X2921071Y-3479214D01*
X2892500Y-3479214D01*
X2863928Y-3464929D01*
X2849643Y-3450643D01*
X2835357Y-3422071D01*
X2821071Y-3364929D01*
X2821071Y-3293500D01*
X2835357Y-3236357D01*
X2849643Y-3207786D01*
X2863928Y-3193500D01*
X2892500Y-3179214D01*
X3121071Y-3450643D02*
X3135357Y-3464929D01*
X3121071Y-3479214D01*
X3106786Y-3464929D01*
X3121071Y-3450643D01*
X3121071Y-3479214D01*
X3321071Y-3179214D02*
X3349643Y-3179214D01*
X3378214Y-3193500D01*
X3392500Y-3207786D01*
X3406785Y-3236357D01*
X3421071Y-3293500D01*
X3421071Y-3364929D01*
X3406785Y-3422071D01*
X3392500Y-3450643D01*
X3378214Y-3464929D01*
X3349643Y-3479214D01*
X3321071Y-3479214D01*
X3292500Y-3464929D01*
X3278214Y-3450643D01*
X3263928Y-3422071D01*
X3249643Y-3364929D01*
X3249643Y-3293500D01*
X3263928Y-3236357D01*
X3278214Y-3207786D01*
X3292500Y-3193500D01*
X3321071Y-3179214D01*
X3678214Y-3179214D02*
X3621071Y-3179214D01*
X3592500Y-3193500D01*
X3578214Y-3207786D01*
X3549643Y-3250643D01*
X3535357Y-3307786D01*
X3535357Y-3422071D01*
X3549643Y-3450643D01*
X3563928Y-3464929D01*
X3592500Y-3479214D01*
X3649643Y-3479214D01*
X3678214Y-3464929D01*
X3692500Y-3450643D01*
X3706785Y-3422071D01*
X3706785Y-3350643D01*
X3692500Y-3322071D01*
X3678214Y-3307786D01*
X3649643Y-3293500D01*
X3592500Y-3293500D01*
X3563928Y-3307786D01*
X3549643Y-3322071D01*
X3535357Y-3350643D01*
X3978214Y-3179214D02*
X3835357Y-3179214D01*
X3821071Y-3322071D01*
X3835357Y-3307786D01*
X3863928Y-3293500D01*
X3935357Y-3293500D01*
X3963928Y-3307786D01*
X3978214Y-3322071D01*
X3992500Y-3350643D01*
X3992500Y-3422071D01*
X3978214Y-3450643D01*
X3963928Y-3464929D01*
X3935357Y-3479214D01*
X3863928Y-3479214D01*
X3835357Y-3464929D01*
X3821071Y-3450643D01*
X4106786Y-3179214D02*
X4106786Y-3236357D01*
X4221071Y-3179214D02*
X4221071Y-3236357D01*
X4663928Y-3593500D02*
X4649643Y-3579214D01*
X4621071Y-3536357D01*
X4606786Y-3507786D01*
X4592500Y-3464929D01*
X4578214Y-3393500D01*
X4578214Y-3336357D01*
X4592500Y-3264929D01*
X4606786Y-3222071D01*
X4621071Y-3193500D01*
X4649643Y-3150643D01*
X4663928Y-3136357D01*
X4749643Y-3179214D02*
X4935357Y-3179214D01*
X4835357Y-3293500D01*
X4878214Y-3293500D01*
X4906786Y-3307786D01*
X4921071Y-3322071D01*
X4935357Y-3350643D01*
X4935357Y-3422071D01*
X4921071Y-3450643D01*
X4906786Y-3464929D01*
X4878214Y-3479214D01*
X4792500Y-3479214D01*
X4763928Y-3464929D01*
X4749643Y-3450643D01*
X5292500Y-3479214D02*
X5292500Y-3179214D01*
X5421071Y-3479214D02*
X5421071Y-3322071D01*
X5406786Y-3293500D01*
X5378214Y-3279214D01*
X5335357Y-3279214D01*
X5306786Y-3293500D01*
X5292500Y-3307786D01*
X5606785Y-3479214D02*
X5578214Y-3464929D01*
X5563928Y-3450643D01*
X5549643Y-3422071D01*
X5549643Y-3336357D01*
X5563928Y-3307786D01*
X5578214Y-3293500D01*
X5606785Y-3279214D01*
X5649643Y-3279214D01*
X5678214Y-3293500D01*
X5692500Y-3307786D01*
X5706785Y-3336357D01*
X5706785Y-3422071D01*
X5692500Y-3450643D01*
X5678214Y-3464929D01*
X5649643Y-3479214D01*
X5606785Y-3479214D01*
X5878214Y-3479214D02*
X5849643Y-3464929D01*
X5835357Y-3436357D01*
X5835357Y-3179214D01*
X6106786Y-3464929D02*
X6078214Y-3479214D01*
X6021071Y-3479214D01*
X5992500Y-3464929D01*
X5978214Y-3436357D01*
X5978214Y-3322071D01*
X5992500Y-3293500D01*
X6021071Y-3279214D01*
X6078214Y-3279214D01*
X6106786Y-3293500D01*
X6121071Y-3322071D01*
X6121071Y-3350643D01*
X5978214Y-3379214D01*
X6235357Y-3464929D02*
X6263928Y-3479214D01*
X6321071Y-3479214D01*
X6349643Y-3464929D01*
X6363928Y-3436357D01*
X6363928Y-3422071D01*
X6349643Y-3393500D01*
X6321071Y-3379214D01*
X6278214Y-3379214D01*
X6249643Y-3364929D01*
X6235357Y-3336357D01*
X6235357Y-3322071D01*
X6249643Y-3293500D01*
X6278214Y-3279214D01*
X6321071Y-3279214D01*
X6349643Y-3293500D01*
X6463928Y-3593500D02*
X6478214Y-3579214D01*
X6506786Y-3536357D01*
X6521071Y-3507786D01*
X6535357Y-3464929D01*
X6549643Y-3393500D01*
X6549643Y-3336357D01*
X6535357Y-3264929D01*
X6521071Y-3222071D01*
X6506786Y-3193500D01*
X6478214Y-3150643D01*
X6463928Y-3136357D01*
M02*
