M48
;DRILL file {KiCad 4.0.7} date 06/22/18 18:43:52
;FORMAT={-:-/ absolute / metric / decimal}
FMAT,2
METRIC,TZ
T1C0.300
T2C0.400
T3C0.600
T4C0.800
T5C1.000
T6C1.050
T7C1.650
%
G90
G05
M71
T1
X13.9Y19.4
X15.1Y18.6
X17.7Y23.2
X17.8Y17.9
X20.2Y19.6
X25.4Y19.8
X25.4Y18.1
X25.5Y15.7
X25.8Y12.6
X28.2Y30.8
X29.Y39.5
X29.8Y21.4
X34.6Y44.2
X39.6Y20.
X39.6Y18.
X39.6Y16.
X41.7Y40.3
X41.7Y34.7
X41.7Y30.9
X41.7Y26.1
X41.7Y22.1
X46.5Y16.
X46.6Y18.
X46.7Y20.
X53.2Y28.4
X53.5Y16.3
X54.7Y14.6
T2
X18.9Y15.2
X44.9Y48.5
X45.9Y39.2
X47.4Y48.5
X47.5Y29.3
X48.3Y39.2
X48.3Y30.1
T3
X25.4Y23.8
X26.9Y23.8
T4
X4.Y34.5
X4.5Y19.
X6.5Y34.5
X6.5Y19.
T5
X16.Y13.
X18.5Y13.
X21.Y13.
X24.Y44.3
X24.Y41.8
X24.Y39.3
X24.Y36.8
X24.Y34.3
X24.Y31.8
X31.5Y6.
X34.Y6.
X36.5Y6.
X39.Y6.
X59.Y46.
X59.Y43.5
X59.Y41.
T6
X4.Y10.
X6.5Y10.
X9.5Y45.5
X12.Y45.5
X46.Y6.
X48.5Y6.
T7
X59.5Y33.5
X59.5Y25.58
X59.5Y17.66
T0
M30
