G04 #@! TF.FileFunction,Soldermask,Top*
%FSLAX46Y46*%
G04 Gerber Fmt 4.6, Leading zero omitted, Abs format (unit mm)*
G04 Created by KiCad (PCBNEW 4.0.7) date 06/23/18 09:52:51*
%MOMM*%
%LPD*%
G01*
G04 APERTURE LIST*
%ADD10C,0.100000*%
%ADD11R,2.150000X2.150000*%
%ADD12C,2.150000*%
%ADD13R,1.900000X1.650000*%
%ADD14R,2.000000X2.000000*%
%ADD15C,2.000000*%
%ADD16R,1.600000X1.600000*%
%ADD17C,1.600000*%
%ADD18R,1.900000X1.700000*%
%ADD19R,2.300000X1.200000*%
%ADD20C,2.200000*%
%ADD21C,4.400000*%
%ADD22R,2.900000X1.400000*%
%ADD23R,4.400000X2.400000*%
%ADD24R,1.000000X1.900000*%
%ADD25R,3.400000X2.750000*%
%ADD26O,3.400000X2.750000*%
G04 APERTURE END LIST*
D10*
D11*
X9500000Y45500000D03*
D12*
X12000000Y45500000D03*
D13*
X3750000Y40000000D03*
X6250000Y40000000D03*
D14*
X4000000Y34500000D03*
D15*
X6500000Y34500000D03*
D14*
X4500000Y19000000D03*
D15*
X6500000Y19000000D03*
D13*
X4250000Y15000000D03*
X6750000Y15000000D03*
D16*
X25400000Y23800000D03*
D17*
X26900000Y23800000D03*
D13*
X20250000Y16500000D03*
X22750000Y16500000D03*
X41750000Y20000000D03*
X44250000Y20000000D03*
X41750000Y18000000D03*
X44250000Y18000000D03*
X41750000Y16000000D03*
X44250000Y16000000D03*
D18*
X34650000Y13000000D03*
X37350000Y13000000D03*
X34650000Y11000000D03*
X37350000Y11000000D03*
D11*
X31500000Y6000000D03*
D12*
X34000000Y6000000D03*
X36500000Y6000000D03*
X39000000Y6000000D03*
D11*
X46000000Y6000000D03*
D12*
X48500000Y6000000D03*
D11*
X59000000Y46000000D03*
D12*
X59000000Y43500000D03*
X59000000Y41000000D03*
D19*
X36500000Y46950000D03*
X36500000Y45050000D03*
X39500000Y46000000D03*
X51000000Y45050000D03*
X51000000Y46950000D03*
X48000000Y46000000D03*
X48000000Y42950000D03*
X48000000Y41050000D03*
X51000000Y42000000D03*
X36500000Y36950000D03*
X36500000Y35050000D03*
X39500000Y36000000D03*
X51000000Y35550000D03*
X51000000Y37450000D03*
X48000000Y36500000D03*
X48000000Y33450000D03*
X48000000Y31550000D03*
X51000000Y32500000D03*
X36500000Y28450000D03*
X36500000Y26550000D03*
X39500000Y27500000D03*
X51000000Y26550000D03*
X51000000Y28450000D03*
X48000000Y27500000D03*
X48000000Y24450000D03*
X48000000Y22550000D03*
X51000000Y23500000D03*
D18*
X33850000Y47000000D03*
X31150000Y47000000D03*
X33850000Y42500000D03*
X31150000Y42500000D03*
X44850000Y42500000D03*
X42150000Y42500000D03*
X44850000Y47000000D03*
X42150000Y47000000D03*
X29650000Y13000000D03*
X32350000Y13000000D03*
X29650000Y11000000D03*
X32350000Y11000000D03*
X33850000Y37000000D03*
X31150000Y37000000D03*
X33850000Y33000000D03*
X31150000Y33000000D03*
X16850000Y16500000D03*
X14150000Y16500000D03*
X44850000Y33000000D03*
X42150000Y33000000D03*
X44850000Y37000000D03*
X42150000Y37000000D03*
X33850000Y28500000D03*
X31150000Y28500000D03*
X33850000Y24000000D03*
X31150000Y24000000D03*
X44850000Y24000000D03*
X42150000Y24000000D03*
X42150000Y11000000D03*
X44850000Y11000000D03*
X44850000Y28500000D03*
X42150000Y28500000D03*
X28150000Y20000000D03*
X30850000Y20000000D03*
X28150000Y18000000D03*
X30850000Y18000000D03*
X28150000Y16000000D03*
X30850000Y16000000D03*
X34650000Y20000000D03*
X37350000Y20000000D03*
X34650000Y18000000D03*
X37350000Y18000000D03*
X34650000Y16000000D03*
X37350000Y16000000D03*
X51350000Y20000000D03*
X48650000Y20000000D03*
X51350000Y18000000D03*
X48650000Y18000000D03*
X51350000Y16000000D03*
X48650000Y16000000D03*
D20*
X21000000Y13000000D03*
X18500000Y13000000D03*
X16000000Y13000000D03*
D21*
X23250000Y5500000D03*
X13750000Y5500000D03*
D22*
X7980000Y24500000D03*
X7980000Y26000000D03*
X7980000Y27500000D03*
D23*
X4020000Y26000000D03*
D10*
G36*
X5795000Y27200000D02*
X6945000Y26700000D01*
X6945000Y25300000D01*
X5795000Y24800000D01*
X5795000Y27200000D01*
X5795000Y27200000D01*
G37*
D24*
X12555000Y21300000D03*
X13825000Y21300000D03*
X15095000Y21300000D03*
X16365000Y21300000D03*
X17635000Y21300000D03*
X18905000Y21300000D03*
X20175000Y21300000D03*
X21445000Y21300000D03*
X21445000Y26700000D03*
X20175000Y26700000D03*
X18905000Y26700000D03*
X17635000Y26700000D03*
X16365000Y26700000D03*
X15095000Y26700000D03*
X13825000Y26700000D03*
X12555000Y26700000D03*
D11*
X4000000Y10000000D03*
D12*
X6500000Y10000000D03*
D11*
X24000000Y31800000D03*
D12*
X24000000Y34300000D03*
X24000000Y36800000D03*
X24000000Y39300000D03*
X24000000Y41800000D03*
X24000000Y44300000D03*
D25*
X59500000Y33500000D03*
D26*
X59500000Y25580000D03*
X59500000Y17660000D03*
M02*
