G04 #@! TF.FileFunction,Copper,L2,Bot,Signal*
%FSLAX46Y46*%
G04 Gerber Fmt 4.6, Leading zero omitted, Abs format (unit mm)*
G04 Created by KiCad (PCBNEW 4.0.7) date 06/23/18 09:52:51*
%MOMM*%
%LPD*%
G01*
G04 APERTURE LIST*
%ADD10C,0.100000*%
%ADD11R,1.750000X1.750000*%
%ADD12C,1.750000*%
%ADD13R,1.600000X1.600000*%
%ADD14C,1.600000*%
%ADD15R,1.200000X1.200000*%
%ADD16C,1.200000*%
%ADD17C,1.800000*%
%ADD18C,4.000000*%
%ADD19R,3.000000X2.350000*%
%ADD20O,3.000000X2.350000*%
%ADD21C,0.600000*%
%ADD22C,0.300000*%
%ADD23C,1.000000*%
%ADD24C,1.200000*%
%ADD25C,0.600000*%
%ADD26C,0.800000*%
%ADD27C,0.500000*%
%ADD28C,0.254000*%
G04 APERTURE END LIST*
D10*
D11*
X9500000Y45500000D03*
D12*
X12000000Y45500000D03*
D13*
X4000000Y34500000D03*
D14*
X6500000Y34500000D03*
D13*
X4500000Y19000000D03*
D14*
X6500000Y19000000D03*
D15*
X25400000Y23800000D03*
D16*
X26900000Y23800000D03*
D11*
X31500000Y6000000D03*
D12*
X34000000Y6000000D03*
X36500000Y6000000D03*
X39000000Y6000000D03*
D11*
X46000000Y6000000D03*
D12*
X48500000Y6000000D03*
D11*
X59000000Y46000000D03*
D12*
X59000000Y43500000D03*
X59000000Y41000000D03*
D17*
X21000000Y13000000D03*
X18500000Y13000000D03*
X16000000Y13000000D03*
D18*
X23250000Y5500000D03*
X13750000Y5500000D03*
D11*
X4000000Y10000000D03*
D12*
X6500000Y10000000D03*
D11*
X24000000Y31800000D03*
D12*
X24000000Y34300000D03*
X24000000Y36800000D03*
X24000000Y39300000D03*
X24000000Y41800000D03*
X24000000Y44300000D03*
D19*
X59500000Y33500000D03*
D20*
X59500000Y25580000D03*
X59500000Y17660000D03*
D21*
X48300000Y30100000D03*
X47500000Y29300000D03*
X45900000Y39200000D03*
X48300000Y39200000D03*
X44900000Y48500000D03*
X47400000Y48500000D03*
X41700000Y30900000D03*
X41700000Y26100000D03*
X41700000Y34700000D03*
X41700000Y22100000D03*
X41700000Y40300000D03*
X34600000Y44200000D03*
X18900000Y15200000D03*
X39600000Y20000000D03*
X46700000Y20000000D03*
X13900000Y19400000D03*
X25400000Y19800000D03*
X39600000Y18000000D03*
X46600000Y18000000D03*
X15100000Y18600000D03*
X25400000Y18100000D03*
X39600000Y16000000D03*
X46500000Y16000000D03*
X17800000Y17900000D03*
X25500000Y15700000D03*
X25800000Y12600000D03*
X53500000Y16300000D03*
X54700000Y14600000D03*
X53200000Y28400000D03*
X29000000Y39500000D03*
X28200000Y30800000D03*
X20200000Y19600000D03*
X17700000Y23200000D03*
X29800000Y21400000D03*
D22*
X47350000Y29250000D02*
X47400000Y29300000D01*
X47400000Y29300000D02*
X47500000Y29300000D01*
D23*
X48300000Y39200000D02*
X45900000Y39200000D01*
D24*
X44900000Y48500000D02*
X47400000Y48500000D01*
X47500000Y48400000D02*
X47400000Y48500000D01*
X47500000Y48400000D02*
X48300000Y47600000D01*
X48300000Y47600000D02*
X48300000Y39200000D01*
X48300000Y39200000D02*
X48300000Y30100000D01*
X48300000Y30100000D02*
X48300000Y29900000D01*
X48300000Y29900000D02*
X48000000Y29900000D01*
X48000000Y29900000D02*
X47350000Y29250000D01*
X47350000Y29250000D02*
X47300000Y29200000D01*
X9500000Y45500000D02*
X9600000Y45600000D01*
X9600000Y45600000D02*
X9600000Y48000000D01*
X18600000Y48500000D02*
X44900000Y48500000D01*
X10100000Y48500000D02*
X18600000Y48500000D01*
X9600000Y48000000D02*
X10100000Y48500000D01*
D25*
X34000000Y6000000D02*
X34000000Y3900000D01*
X27500000Y5200000D02*
X21300000Y11400000D01*
X27500000Y4200000D02*
X27500000Y5200000D01*
X28400000Y3300000D02*
X27500000Y4200000D01*
X33400000Y3300000D02*
X28400000Y3300000D01*
X34000000Y3900000D02*
X33400000Y3300000D01*
X41700000Y34700000D02*
X41600000Y34800000D01*
X41600000Y34800000D02*
X41700000Y34800000D01*
D23*
X12000000Y45500000D02*
X12900000Y46400000D01*
X32400000Y46400000D02*
X34600000Y44200000D01*
X12900000Y46400000D02*
X32400000Y46400000D01*
X41700000Y40300000D02*
X37800000Y44200000D01*
X37800000Y44200000D02*
X34600000Y44200000D01*
X41700000Y30900000D02*
X41700000Y26100000D01*
X41700000Y26100000D02*
X41700000Y22100000D01*
X41700000Y40300000D02*
X41700000Y34800000D01*
X41700000Y34800000D02*
X41700000Y30900000D01*
D22*
X28500000Y44200000D02*
X28500000Y44200000D01*
X34600000Y44200000D02*
X28500000Y44200000D01*
X28500000Y44200000D02*
X28500000Y44200000D01*
X28500000Y44200000D02*
X25300000Y47400000D01*
X25300000Y47400000D02*
X18000000Y47400000D01*
X18000000Y47400000D02*
X13900000Y47400000D01*
X13900000Y47400000D02*
X12000000Y45500000D01*
X34000000Y6000000D02*
X34200000Y6200000D01*
D23*
X6500000Y10000000D02*
X18000000Y10000000D01*
X18000000Y10000000D02*
X20000000Y10000000D01*
X20000000Y10000000D02*
X21000000Y11000000D01*
X21000000Y11000000D02*
X21000000Y13000000D01*
D25*
X4000000Y10000000D02*
X12400000Y1600000D01*
X34600000Y1600000D02*
X39000000Y6000000D01*
X12400000Y1600000D02*
X34600000Y1600000D01*
D26*
X16000000Y14500000D02*
X16000000Y13000000D01*
X16700000Y15200000D02*
X16000000Y14500000D01*
X18900000Y15200000D02*
X16700000Y15200000D01*
D23*
X4000000Y10000000D02*
X4000000Y12000000D01*
X5000000Y13000000D02*
X16000000Y13000000D01*
X4000000Y12000000D02*
X5000000Y13000000D01*
D27*
X25400000Y19800000D02*
X25600000Y20000000D01*
D22*
X25600000Y20000000D02*
X39600000Y20000000D01*
X18900000Y18600000D02*
X18100000Y19400000D01*
X18100000Y19400000D02*
X16500000Y19400000D01*
X46700000Y20000000D02*
X39600000Y20000000D01*
X13900000Y19400000D02*
X16500000Y19400000D01*
X18100000Y19400000D02*
X18553555Y18946445D01*
X18553555Y18946445D02*
X18900000Y18600000D01*
X18900000Y18600000D02*
X20000000Y17500000D01*
X20000000Y17500000D02*
X23100000Y17500000D01*
X23100000Y17500000D02*
X25400000Y19800000D01*
X25400000Y18100000D02*
X25500000Y18000000D01*
X25500000Y18000000D02*
X39600000Y18000000D01*
X46600000Y18000000D02*
X39600000Y18000000D01*
X15100000Y18600000D02*
X17600000Y18600000D01*
X17600000Y18600000D02*
X18100000Y18600000D01*
X18100000Y18600000D02*
X20000000Y16700000D01*
X20000000Y16700000D02*
X24000000Y16700000D01*
X24000000Y16700000D02*
X25400000Y18100000D01*
X25500000Y15700000D02*
X25800000Y16000000D01*
X25800000Y16000000D02*
X39600000Y16000000D01*
X46500000Y16000000D02*
X39600000Y16000000D01*
X17800000Y17900000D02*
X20200000Y15500000D01*
X20200000Y15500000D02*
X25300000Y15500000D01*
X25300000Y15500000D02*
X25500000Y15700000D01*
X25800000Y11700000D02*
X31500000Y6000000D01*
X25800000Y12600000D02*
X25800000Y11700000D01*
X53500000Y19580000D02*
X59500000Y25580000D01*
X53500000Y16300000D02*
X53500000Y19580000D01*
X56440000Y14600000D02*
X59500000Y17660000D01*
X54700000Y14600000D02*
X56440000Y14600000D01*
D23*
X59000000Y41000000D02*
X56300000Y38300000D01*
X56300000Y38300000D02*
X56300000Y31500000D01*
X56300000Y31500000D02*
X53200000Y28400000D01*
D25*
X24000000Y41800000D02*
X26700000Y41800000D01*
X26700000Y41800000D02*
X29000000Y39500000D01*
X24000000Y39300000D02*
X26600000Y39300000D01*
X28200000Y37700000D02*
X28200000Y30800000D01*
X26600000Y39300000D02*
X28200000Y37700000D01*
X24000000Y31800000D02*
X20200000Y28000000D01*
X20200000Y28000000D02*
X20200000Y19600000D01*
D22*
X17700000Y23200000D02*
X17700000Y20900000D01*
X17700000Y20900000D02*
X19900000Y18700000D01*
X19900000Y18700000D02*
X22900000Y18700000D01*
X22900000Y18700000D02*
X25000000Y20800000D01*
X25000000Y20800000D02*
X29200000Y20800000D01*
X29200000Y20800000D02*
X29800000Y21400000D01*
D28*
G36*
X8726723Y48873277D02*
X8459009Y48472614D01*
X8365000Y48000000D01*
X8365000Y46962279D01*
X8173559Y46839090D01*
X8028569Y46626890D01*
X7977560Y46375000D01*
X7977560Y44625000D01*
X8021838Y44389683D01*
X8160910Y44173559D01*
X8373110Y44028569D01*
X8625000Y43977560D01*
X10375000Y43977560D01*
X10610317Y44021838D01*
X10826441Y44160910D01*
X10963994Y44362226D01*
X11002914Y44323306D01*
X11117546Y44437938D01*
X11200884Y44184047D01*
X11765306Y43978410D01*
X12365458Y44004421D01*
X12799116Y44184047D01*
X12882455Y44437940D01*
X12000000Y45320395D01*
X11985858Y45306252D01*
X11806253Y45485857D01*
X11820395Y45500000D01*
X12179605Y45500000D01*
X13062060Y44617545D01*
X13315953Y44700884D01*
X13521590Y45265306D01*
X13495579Y45865458D01*
X13315953Y46299116D01*
X13062060Y46382455D01*
X12179605Y45500000D01*
X11820395Y45500000D01*
X11806253Y45514142D01*
X11985858Y45693747D01*
X12000000Y45679605D01*
X12882455Y46562060D01*
X12799116Y46815953D01*
X12234694Y47021590D01*
X11634542Y46995579D01*
X11200884Y46815953D01*
X11117546Y46562062D01*
X11002914Y46676694D01*
X10961864Y46635644D01*
X10839090Y46826441D01*
X10835000Y46829236D01*
X10835000Y47265000D01*
X46888446Y47265000D01*
X47065000Y47088446D01*
X47065000Y40335000D01*
X45900000Y40335000D01*
X45465654Y40248603D01*
X45097434Y40002566D01*
X44851397Y39634346D01*
X44765000Y39200000D01*
X44851397Y38765654D01*
X45097434Y38397434D01*
X45465654Y38151397D01*
X45900000Y38065000D01*
X47065000Y38065000D01*
X47065000Y30711554D01*
X46426723Y30073277D01*
X46159009Y29672614D01*
X46065000Y29200000D01*
X46159009Y28727386D01*
X46426723Y28326723D01*
X46827386Y28059009D01*
X47300000Y27965000D01*
X47772614Y28059009D01*
X48173277Y28326723D01*
X48246554Y28400000D01*
X52065000Y28400000D01*
X52151397Y27965655D01*
X52397434Y27597434D01*
X52765655Y27351397D01*
X53200000Y27265000D01*
X53634345Y27351397D01*
X54002566Y27597434D01*
X57102566Y30697434D01*
X57233317Y30893117D01*
X57348603Y31065654D01*
X57435000Y31500000D01*
X57435000Y32030378D01*
X57535910Y31873559D01*
X57748110Y31728569D01*
X58000000Y31677560D01*
X61000000Y31677560D01*
X61235317Y31721838D01*
X61451441Y31860910D01*
X61596431Y32073110D01*
X61647440Y32325000D01*
X61647440Y34675000D01*
X61603162Y34910317D01*
X61464090Y35126441D01*
X61251890Y35271431D01*
X61000000Y35322440D01*
X58000000Y35322440D01*
X57764683Y35278162D01*
X57548559Y35139090D01*
X57435000Y34972891D01*
X57435000Y37829868D01*
X59095048Y39489916D01*
X59299040Y39489738D01*
X59854229Y39719138D01*
X60279370Y40143537D01*
X60509738Y40698325D01*
X60510262Y41299040D01*
X60280862Y41854229D01*
X59885464Y42250318D01*
X60279370Y42643537D01*
X60509738Y43198325D01*
X60510262Y43799040D01*
X60280862Y44354229D01*
X60112283Y44523103D01*
X60326441Y44660910D01*
X60471431Y44873110D01*
X60522440Y45125000D01*
X60522440Y46875000D01*
X60478162Y47110317D01*
X60339090Y47326441D01*
X60126890Y47471431D01*
X59875000Y47522440D01*
X58125000Y47522440D01*
X57889683Y47478162D01*
X57673559Y47339090D01*
X57528569Y47126890D01*
X57477560Y46875000D01*
X57477560Y45125000D01*
X57521838Y44889683D01*
X57660910Y44673559D01*
X57873110Y44528569D01*
X57889676Y44525214D01*
X57720630Y44356463D01*
X57490262Y43801675D01*
X57489738Y43200960D01*
X57719138Y42645771D01*
X58114536Y42249682D01*
X57720630Y41856463D01*
X57490262Y41301675D01*
X57490082Y41095214D01*
X55497434Y39102566D01*
X55251397Y38734346D01*
X55165000Y38300000D01*
X55165000Y31970132D01*
X52397434Y29202566D01*
X52151397Y28834345D01*
X52065000Y28400000D01*
X48246554Y28400000D01*
X48564084Y28717530D01*
X48772614Y28759009D01*
X49173277Y29026723D01*
X49440991Y29427386D01*
X49535000Y29900000D01*
X49535000Y47600000D01*
X49440991Y48072614D01*
X49173277Y48473277D01*
X48356554Y49290000D01*
X63530394Y49290000D01*
X64290000Y48530394D01*
X64290000Y16469606D01*
X62947394Y15127000D01*
X58077157Y15127000D01*
X58855408Y15905251D01*
X59133173Y15850000D01*
X59866827Y15850000D01*
X60559484Y15987778D01*
X61146690Y16380137D01*
X61539049Y16967343D01*
X61676827Y17660000D01*
X61539049Y18352657D01*
X61146690Y18939863D01*
X60559484Y19332222D01*
X59866827Y19470000D01*
X59133173Y19470000D01*
X58440516Y19332222D01*
X57853310Y18939863D01*
X57460951Y18352657D01*
X57323173Y17660000D01*
X57460951Y16967343D01*
X57555573Y16825731D01*
X56114842Y15385000D01*
X55237506Y15385000D01*
X55230327Y15392192D01*
X54886799Y15534838D01*
X54514833Y15535162D01*
X54171057Y15393117D01*
X53907808Y15130327D01*
X53906427Y15127000D01*
X46835611Y15127000D01*
X47028943Y15206883D01*
X47292192Y15469673D01*
X47434838Y15813201D01*
X47435100Y16114833D01*
X52564838Y16114833D01*
X52706883Y15771057D01*
X52969673Y15507808D01*
X53313201Y15365162D01*
X53685167Y15364838D01*
X54028943Y15506883D01*
X54292192Y15769673D01*
X54434838Y16113201D01*
X54435162Y16485167D01*
X54293117Y16828943D01*
X54285000Y16837074D01*
X54285000Y19254842D01*
X58855409Y23825251D01*
X59133173Y23770000D01*
X59866827Y23770000D01*
X60559484Y23907778D01*
X61146690Y24300137D01*
X61539049Y24887343D01*
X61676827Y25580000D01*
X61539049Y26272657D01*
X61146690Y26859863D01*
X60559484Y27252222D01*
X59866827Y27390000D01*
X59133173Y27390000D01*
X58440516Y27252222D01*
X57853310Y26859863D01*
X57460951Y26272657D01*
X57323173Y25580000D01*
X57460951Y24887343D01*
X57555573Y24745731D01*
X52944921Y20135079D01*
X52774755Y19880407D01*
X52738951Y19700407D01*
X52715000Y19580000D01*
X52715000Y16837506D01*
X52707808Y16830327D01*
X52565162Y16486799D01*
X52564838Y16114833D01*
X47435100Y16114833D01*
X47435162Y16185167D01*
X47293117Y16528943D01*
X47030327Y16792192D01*
X46686799Y16934838D01*
X46314833Y16935162D01*
X45971057Y16793117D01*
X45962926Y16785000D01*
X40137506Y16785000D01*
X40130327Y16792192D01*
X39786799Y16934838D01*
X39414833Y16935162D01*
X39071057Y16793117D01*
X39062926Y16785000D01*
X30394606Y16785000D01*
X30127000Y17052606D01*
X30127000Y17215000D01*
X39062494Y17215000D01*
X39069673Y17207808D01*
X39413201Y17065162D01*
X39785167Y17064838D01*
X40128943Y17206883D01*
X40137074Y17215000D01*
X46062494Y17215000D01*
X46069673Y17207808D01*
X46413201Y17065162D01*
X46785167Y17064838D01*
X47128943Y17206883D01*
X47392192Y17469673D01*
X47534838Y17813201D01*
X47535162Y18185167D01*
X47393117Y18528943D01*
X47130327Y18792192D01*
X46786799Y18934838D01*
X46414833Y18935162D01*
X46071057Y18793117D01*
X46062926Y18785000D01*
X40137506Y18785000D01*
X40130327Y18792192D01*
X39786799Y18934838D01*
X39414833Y18935162D01*
X39071057Y18793117D01*
X39062926Y18785000D01*
X30127000Y18785000D01*
X30127000Y19215000D01*
X39062494Y19215000D01*
X39069673Y19207808D01*
X39413201Y19065162D01*
X39785167Y19064838D01*
X40128943Y19206883D01*
X40137074Y19215000D01*
X46162494Y19215000D01*
X46169673Y19207808D01*
X46513201Y19065162D01*
X46885167Y19064838D01*
X47228943Y19206883D01*
X47492192Y19469673D01*
X47634838Y19813201D01*
X47635162Y20185167D01*
X47493117Y20528943D01*
X47230327Y20792192D01*
X46886799Y20934838D01*
X46514833Y20935162D01*
X46171057Y20793117D01*
X46162926Y20785000D01*
X40137506Y20785000D01*
X40130327Y20792192D01*
X39786799Y20934838D01*
X39414833Y20935162D01*
X39071057Y20793117D01*
X39062926Y20785000D01*
X30507371Y20785000D01*
X30592192Y20869673D01*
X30734838Y21213201D01*
X30735162Y21585167D01*
X30593117Y21928943D01*
X30330327Y22192192D01*
X30127000Y22276621D01*
X30127000Y28000000D01*
X30116994Y28049410D01*
X30089803Y28089803D01*
X28314707Y29864899D01*
X28385167Y29864838D01*
X28728943Y30006883D01*
X28992192Y30269673D01*
X29134838Y30613201D01*
X29135162Y30985167D01*
X29135000Y30985559D01*
X29135000Y37700000D01*
X29063827Y38057809D01*
X28861145Y38361145D01*
X28546301Y38675989D01*
X28813201Y38565162D01*
X29185167Y38564838D01*
X29528943Y38706883D01*
X29792192Y38969673D01*
X29934838Y39313201D01*
X29935162Y39685167D01*
X29793117Y40028943D01*
X29530327Y40292192D01*
X29529935Y40292355D01*
X27361145Y42461145D01*
X27057809Y42663827D01*
X26700000Y42735000D01*
X25200232Y42735000D01*
X24885464Y43050318D01*
X25279370Y43443537D01*
X25509738Y43998325D01*
X25510262Y44599040D01*
X25280862Y45154229D01*
X24856463Y45579370D01*
X24301675Y45809738D01*
X23700960Y45810262D01*
X23145771Y45580862D01*
X22720630Y45156463D01*
X22490262Y44601675D01*
X22489738Y44000960D01*
X22719138Y43445771D01*
X23114536Y43049682D01*
X22720630Y42656463D01*
X22490262Y42101675D01*
X22489738Y41500960D01*
X22719138Y40945771D01*
X23114536Y40549682D01*
X22720630Y40156463D01*
X22490262Y39601675D01*
X22489738Y39000960D01*
X22719138Y38445771D01*
X23114536Y38049682D01*
X22720630Y37656463D01*
X22490262Y37101675D01*
X22489738Y36500960D01*
X22719138Y35945771D01*
X23114536Y35549682D01*
X22720630Y35156463D01*
X22490262Y34601675D01*
X22489738Y34000960D01*
X22719138Y33445771D01*
X22887717Y33276897D01*
X22673559Y33139090D01*
X22528569Y32926890D01*
X22477560Y32675000D01*
X22477560Y31599850D01*
X21004710Y30127000D01*
X2052606Y30127000D01*
X710000Y31469606D01*
X710000Y35300000D01*
X2552560Y35300000D01*
X2552560Y33700000D01*
X2596838Y33464683D01*
X2735910Y33248559D01*
X2948110Y33103569D01*
X3200000Y33052560D01*
X4800000Y33052560D01*
X5035317Y33096838D01*
X5251441Y33235910D01*
X5396431Y33448110D01*
X5405370Y33492255D01*
X5671861Y33492255D01*
X5745995Y33246136D01*
X6283223Y33053035D01*
X6853454Y33080222D01*
X7254005Y33246136D01*
X7328139Y33492255D01*
X6500000Y34320395D01*
X5671861Y33492255D01*
X5405370Y33492255D01*
X5444646Y33686201D01*
X5492255Y33671861D01*
X6320395Y34500000D01*
X6679605Y34500000D01*
X7507745Y33671861D01*
X7753864Y33745995D01*
X7946965Y34283223D01*
X7919778Y34853454D01*
X7753864Y35254005D01*
X7507745Y35328139D01*
X6679605Y34500000D01*
X6320395Y34500000D01*
X5492255Y35328139D01*
X5444833Y35313855D01*
X5408351Y35507745D01*
X5671861Y35507745D01*
X6500000Y34679605D01*
X7328139Y35507745D01*
X7254005Y35753864D01*
X6716777Y35946965D01*
X6146546Y35919778D01*
X5745995Y35753864D01*
X5671861Y35507745D01*
X5408351Y35507745D01*
X5403162Y35535317D01*
X5264090Y35751441D01*
X5051890Y35896431D01*
X4800000Y35947440D01*
X3200000Y35947440D01*
X2964683Y35903162D01*
X2748559Y35764090D01*
X2603569Y35551890D01*
X2552560Y35300000D01*
X710000Y35300000D01*
X710000Y47000000D01*
X790000Y47000000D01*
X958226Y46154270D01*
X1437294Y45437294D01*
X2154270Y44958226D01*
X3000000Y44790000D01*
X3845730Y44958226D01*
X4562706Y45437294D01*
X5041774Y46154270D01*
X5210000Y47000000D01*
X5041774Y47845730D01*
X4562706Y48562706D01*
X3845730Y49041774D01*
X3000000Y49210000D01*
X2154270Y49041774D01*
X1437294Y48562706D01*
X958226Y47845730D01*
X790000Y47000000D01*
X710000Y47000000D01*
X710000Y48530394D01*
X1469606Y49290000D01*
X9143446Y49290000D01*
X8726723Y48873277D01*
X8726723Y48873277D01*
G37*
X8726723Y48873277D02*
X8459009Y48472614D01*
X8365000Y48000000D01*
X8365000Y46962279D01*
X8173559Y46839090D01*
X8028569Y46626890D01*
X7977560Y46375000D01*
X7977560Y44625000D01*
X8021838Y44389683D01*
X8160910Y44173559D01*
X8373110Y44028569D01*
X8625000Y43977560D01*
X10375000Y43977560D01*
X10610317Y44021838D01*
X10826441Y44160910D01*
X10963994Y44362226D01*
X11002914Y44323306D01*
X11117546Y44437938D01*
X11200884Y44184047D01*
X11765306Y43978410D01*
X12365458Y44004421D01*
X12799116Y44184047D01*
X12882455Y44437940D01*
X12000000Y45320395D01*
X11985858Y45306252D01*
X11806253Y45485857D01*
X11820395Y45500000D01*
X12179605Y45500000D01*
X13062060Y44617545D01*
X13315953Y44700884D01*
X13521590Y45265306D01*
X13495579Y45865458D01*
X13315953Y46299116D01*
X13062060Y46382455D01*
X12179605Y45500000D01*
X11820395Y45500000D01*
X11806253Y45514142D01*
X11985858Y45693747D01*
X12000000Y45679605D01*
X12882455Y46562060D01*
X12799116Y46815953D01*
X12234694Y47021590D01*
X11634542Y46995579D01*
X11200884Y46815953D01*
X11117546Y46562062D01*
X11002914Y46676694D01*
X10961864Y46635644D01*
X10839090Y46826441D01*
X10835000Y46829236D01*
X10835000Y47265000D01*
X46888446Y47265000D01*
X47065000Y47088446D01*
X47065000Y40335000D01*
X45900000Y40335000D01*
X45465654Y40248603D01*
X45097434Y40002566D01*
X44851397Y39634346D01*
X44765000Y39200000D01*
X44851397Y38765654D01*
X45097434Y38397434D01*
X45465654Y38151397D01*
X45900000Y38065000D01*
X47065000Y38065000D01*
X47065000Y30711554D01*
X46426723Y30073277D01*
X46159009Y29672614D01*
X46065000Y29200000D01*
X46159009Y28727386D01*
X46426723Y28326723D01*
X46827386Y28059009D01*
X47300000Y27965000D01*
X47772614Y28059009D01*
X48173277Y28326723D01*
X48246554Y28400000D01*
X52065000Y28400000D01*
X52151397Y27965655D01*
X52397434Y27597434D01*
X52765655Y27351397D01*
X53200000Y27265000D01*
X53634345Y27351397D01*
X54002566Y27597434D01*
X57102566Y30697434D01*
X57233317Y30893117D01*
X57348603Y31065654D01*
X57435000Y31500000D01*
X57435000Y32030378D01*
X57535910Y31873559D01*
X57748110Y31728569D01*
X58000000Y31677560D01*
X61000000Y31677560D01*
X61235317Y31721838D01*
X61451441Y31860910D01*
X61596431Y32073110D01*
X61647440Y32325000D01*
X61647440Y34675000D01*
X61603162Y34910317D01*
X61464090Y35126441D01*
X61251890Y35271431D01*
X61000000Y35322440D01*
X58000000Y35322440D01*
X57764683Y35278162D01*
X57548559Y35139090D01*
X57435000Y34972891D01*
X57435000Y37829868D01*
X59095048Y39489916D01*
X59299040Y39489738D01*
X59854229Y39719138D01*
X60279370Y40143537D01*
X60509738Y40698325D01*
X60510262Y41299040D01*
X60280862Y41854229D01*
X59885464Y42250318D01*
X60279370Y42643537D01*
X60509738Y43198325D01*
X60510262Y43799040D01*
X60280862Y44354229D01*
X60112283Y44523103D01*
X60326441Y44660910D01*
X60471431Y44873110D01*
X60522440Y45125000D01*
X60522440Y46875000D01*
X60478162Y47110317D01*
X60339090Y47326441D01*
X60126890Y47471431D01*
X59875000Y47522440D01*
X58125000Y47522440D01*
X57889683Y47478162D01*
X57673559Y47339090D01*
X57528569Y47126890D01*
X57477560Y46875000D01*
X57477560Y45125000D01*
X57521838Y44889683D01*
X57660910Y44673559D01*
X57873110Y44528569D01*
X57889676Y44525214D01*
X57720630Y44356463D01*
X57490262Y43801675D01*
X57489738Y43200960D01*
X57719138Y42645771D01*
X58114536Y42249682D01*
X57720630Y41856463D01*
X57490262Y41301675D01*
X57490082Y41095214D01*
X55497434Y39102566D01*
X55251397Y38734346D01*
X55165000Y38300000D01*
X55165000Y31970132D01*
X52397434Y29202566D01*
X52151397Y28834345D01*
X52065000Y28400000D01*
X48246554Y28400000D01*
X48564084Y28717530D01*
X48772614Y28759009D01*
X49173277Y29026723D01*
X49440991Y29427386D01*
X49535000Y29900000D01*
X49535000Y47600000D01*
X49440991Y48072614D01*
X49173277Y48473277D01*
X48356554Y49290000D01*
X63530394Y49290000D01*
X64290000Y48530394D01*
X64290000Y16469606D01*
X62947394Y15127000D01*
X58077157Y15127000D01*
X58855408Y15905251D01*
X59133173Y15850000D01*
X59866827Y15850000D01*
X60559484Y15987778D01*
X61146690Y16380137D01*
X61539049Y16967343D01*
X61676827Y17660000D01*
X61539049Y18352657D01*
X61146690Y18939863D01*
X60559484Y19332222D01*
X59866827Y19470000D01*
X59133173Y19470000D01*
X58440516Y19332222D01*
X57853310Y18939863D01*
X57460951Y18352657D01*
X57323173Y17660000D01*
X57460951Y16967343D01*
X57555573Y16825731D01*
X56114842Y15385000D01*
X55237506Y15385000D01*
X55230327Y15392192D01*
X54886799Y15534838D01*
X54514833Y15535162D01*
X54171057Y15393117D01*
X53907808Y15130327D01*
X53906427Y15127000D01*
X46835611Y15127000D01*
X47028943Y15206883D01*
X47292192Y15469673D01*
X47434838Y15813201D01*
X47435100Y16114833D01*
X52564838Y16114833D01*
X52706883Y15771057D01*
X52969673Y15507808D01*
X53313201Y15365162D01*
X53685167Y15364838D01*
X54028943Y15506883D01*
X54292192Y15769673D01*
X54434838Y16113201D01*
X54435162Y16485167D01*
X54293117Y16828943D01*
X54285000Y16837074D01*
X54285000Y19254842D01*
X58855409Y23825251D01*
X59133173Y23770000D01*
X59866827Y23770000D01*
X60559484Y23907778D01*
X61146690Y24300137D01*
X61539049Y24887343D01*
X61676827Y25580000D01*
X61539049Y26272657D01*
X61146690Y26859863D01*
X60559484Y27252222D01*
X59866827Y27390000D01*
X59133173Y27390000D01*
X58440516Y27252222D01*
X57853310Y26859863D01*
X57460951Y26272657D01*
X57323173Y25580000D01*
X57460951Y24887343D01*
X57555573Y24745731D01*
X52944921Y20135079D01*
X52774755Y19880407D01*
X52738951Y19700407D01*
X52715000Y19580000D01*
X52715000Y16837506D01*
X52707808Y16830327D01*
X52565162Y16486799D01*
X52564838Y16114833D01*
X47435100Y16114833D01*
X47435162Y16185167D01*
X47293117Y16528943D01*
X47030327Y16792192D01*
X46686799Y16934838D01*
X46314833Y16935162D01*
X45971057Y16793117D01*
X45962926Y16785000D01*
X40137506Y16785000D01*
X40130327Y16792192D01*
X39786799Y16934838D01*
X39414833Y16935162D01*
X39071057Y16793117D01*
X39062926Y16785000D01*
X30394606Y16785000D01*
X30127000Y17052606D01*
X30127000Y17215000D01*
X39062494Y17215000D01*
X39069673Y17207808D01*
X39413201Y17065162D01*
X39785167Y17064838D01*
X40128943Y17206883D01*
X40137074Y17215000D01*
X46062494Y17215000D01*
X46069673Y17207808D01*
X46413201Y17065162D01*
X46785167Y17064838D01*
X47128943Y17206883D01*
X47392192Y17469673D01*
X47534838Y17813201D01*
X47535162Y18185167D01*
X47393117Y18528943D01*
X47130327Y18792192D01*
X46786799Y18934838D01*
X46414833Y18935162D01*
X46071057Y18793117D01*
X46062926Y18785000D01*
X40137506Y18785000D01*
X40130327Y18792192D01*
X39786799Y18934838D01*
X39414833Y18935162D01*
X39071057Y18793117D01*
X39062926Y18785000D01*
X30127000Y18785000D01*
X30127000Y19215000D01*
X39062494Y19215000D01*
X39069673Y19207808D01*
X39413201Y19065162D01*
X39785167Y19064838D01*
X40128943Y19206883D01*
X40137074Y19215000D01*
X46162494Y19215000D01*
X46169673Y19207808D01*
X46513201Y19065162D01*
X46885167Y19064838D01*
X47228943Y19206883D01*
X47492192Y19469673D01*
X47634838Y19813201D01*
X47635162Y20185167D01*
X47493117Y20528943D01*
X47230327Y20792192D01*
X46886799Y20934838D01*
X46514833Y20935162D01*
X46171057Y20793117D01*
X46162926Y20785000D01*
X40137506Y20785000D01*
X40130327Y20792192D01*
X39786799Y20934838D01*
X39414833Y20935162D01*
X39071057Y20793117D01*
X39062926Y20785000D01*
X30507371Y20785000D01*
X30592192Y20869673D01*
X30734838Y21213201D01*
X30735162Y21585167D01*
X30593117Y21928943D01*
X30330327Y22192192D01*
X30127000Y22276621D01*
X30127000Y28000000D01*
X30116994Y28049410D01*
X30089803Y28089803D01*
X28314707Y29864899D01*
X28385167Y29864838D01*
X28728943Y30006883D01*
X28992192Y30269673D01*
X29134838Y30613201D01*
X29135162Y30985167D01*
X29135000Y30985559D01*
X29135000Y37700000D01*
X29063827Y38057809D01*
X28861145Y38361145D01*
X28546301Y38675989D01*
X28813201Y38565162D01*
X29185167Y38564838D01*
X29528943Y38706883D01*
X29792192Y38969673D01*
X29934838Y39313201D01*
X29935162Y39685167D01*
X29793117Y40028943D01*
X29530327Y40292192D01*
X29529935Y40292355D01*
X27361145Y42461145D01*
X27057809Y42663827D01*
X26700000Y42735000D01*
X25200232Y42735000D01*
X24885464Y43050318D01*
X25279370Y43443537D01*
X25509738Y43998325D01*
X25510262Y44599040D01*
X25280862Y45154229D01*
X24856463Y45579370D01*
X24301675Y45809738D01*
X23700960Y45810262D01*
X23145771Y45580862D01*
X22720630Y45156463D01*
X22490262Y44601675D01*
X22489738Y44000960D01*
X22719138Y43445771D01*
X23114536Y43049682D01*
X22720630Y42656463D01*
X22490262Y42101675D01*
X22489738Y41500960D01*
X22719138Y40945771D01*
X23114536Y40549682D01*
X22720630Y40156463D01*
X22490262Y39601675D01*
X22489738Y39000960D01*
X22719138Y38445771D01*
X23114536Y38049682D01*
X22720630Y37656463D01*
X22490262Y37101675D01*
X22489738Y36500960D01*
X22719138Y35945771D01*
X23114536Y35549682D01*
X22720630Y35156463D01*
X22490262Y34601675D01*
X22489738Y34000960D01*
X22719138Y33445771D01*
X22887717Y33276897D01*
X22673559Y33139090D01*
X22528569Y32926890D01*
X22477560Y32675000D01*
X22477560Y31599850D01*
X21004710Y30127000D01*
X2052606Y30127000D01*
X710000Y31469606D01*
X710000Y35300000D01*
X2552560Y35300000D01*
X2552560Y33700000D01*
X2596838Y33464683D01*
X2735910Y33248559D01*
X2948110Y33103569D01*
X3200000Y33052560D01*
X4800000Y33052560D01*
X5035317Y33096838D01*
X5251441Y33235910D01*
X5396431Y33448110D01*
X5405370Y33492255D01*
X5671861Y33492255D01*
X5745995Y33246136D01*
X6283223Y33053035D01*
X6853454Y33080222D01*
X7254005Y33246136D01*
X7328139Y33492255D01*
X6500000Y34320395D01*
X5671861Y33492255D01*
X5405370Y33492255D01*
X5444646Y33686201D01*
X5492255Y33671861D01*
X6320395Y34500000D01*
X6679605Y34500000D01*
X7507745Y33671861D01*
X7753864Y33745995D01*
X7946965Y34283223D01*
X7919778Y34853454D01*
X7753864Y35254005D01*
X7507745Y35328139D01*
X6679605Y34500000D01*
X6320395Y34500000D01*
X5492255Y35328139D01*
X5444833Y35313855D01*
X5408351Y35507745D01*
X5671861Y35507745D01*
X6500000Y34679605D01*
X7328139Y35507745D01*
X7254005Y35753864D01*
X6716777Y35946965D01*
X6146546Y35919778D01*
X5745995Y35753864D01*
X5671861Y35507745D01*
X5408351Y35507745D01*
X5403162Y35535317D01*
X5264090Y35751441D01*
X5051890Y35896431D01*
X4800000Y35947440D01*
X3200000Y35947440D01*
X2964683Y35903162D01*
X2748559Y35764090D01*
X2603569Y35551890D01*
X2552560Y35300000D01*
X710000Y35300000D01*
X710000Y47000000D01*
X790000Y47000000D01*
X958226Y46154270D01*
X1437294Y45437294D01*
X2154270Y44958226D01*
X3000000Y44790000D01*
X3845730Y44958226D01*
X4562706Y45437294D01*
X5041774Y46154270D01*
X5210000Y47000000D01*
X5041774Y47845730D01*
X4562706Y48562706D01*
X3845730Y49041774D01*
X3000000Y49210000D01*
X2154270Y49041774D01*
X1437294Y48562706D01*
X958226Y47845730D01*
X790000Y47000000D01*
X710000Y47000000D01*
X710000Y48530394D01*
X1469606Y49290000D01*
X9143446Y49290000D01*
X8726723Y48873277D01*
M02*
